<svg width="318" height="284" viewBox="0 0 318 284" fill="none" xmlns="http://www.w3.org/2000/svg">
<path d="M22.2085 252.813C16.995 256.305 11.6637 259.909 8.05362 264.967C4.44379 270.024 2.86796 276.929 5.76858 282.402L5.69376 282.743C7.89219 283.494 10.2526 283.683 12.5475 283.29C14.8425 282.896 16.9947 281.935 18.7967 280.498C23.3859 276.751 24.8249 270.578 25.9955 264.863L29.4585 247.957L22.2085 252.813Z" fill="#F0F0F0"/>
<path d="M27.23 269.861C23.7522 270.61 20.1887 271.392 17.2066 273.287C14.2246 275.182 11.9017 278.458 12.2243 281.908L12.1111 282.071C13.0941 282.915 14.284 283.499 15.5662 283.766C16.8483 284.033 18.1796 283.974 19.4317 283.596C22.6393 282.586 24.7318 279.663 26.5849 276.924L32.0662 268.82L27.23 269.861Z" fill="#F0F0F0"/>
<path d="M317.569 15.0917H20.6204C20.5063 15.0913 20.3971 15.047 20.3166 14.9684C20.2361 14.8898 20.1909 14.7834 20.1909 14.6725C20.1909 14.5615 20.2361 14.4551 20.3166 14.3765C20.3971 14.298 20.5063 14.2536 20.6204 14.2533H317.569C317.683 14.2536 317.792 14.298 317.873 14.3765C317.953 14.4551 317.999 14.5615 317.999 14.6725C317.999 14.7834 317.953 14.8898 317.873 14.9684C317.792 15.047 317.683 15.0913 317.569 15.0917Z" fill="#CACACA"/>
<path d="M30.3209 9.22269C32.9392 9.22269 35.0617 7.15812 35.0617 4.61134C35.0617 2.06457 32.9392 0 30.3209 0C27.7026 0 25.5801 2.06457 25.5801 4.61134C25.5801 7.15812 27.7026 9.22269 30.3209 9.22269Z" fill="#3F3D56"/>
<path d="M46.6984 9.22269C49.3166 9.22269 51.4392 7.15812 51.4392 4.61134C51.4392 2.06457 49.3166 0 46.6984 0C44.0801 0 41.9575 2.06457 41.9575 4.61134C41.9575 7.15812 44.0801 9.22269 46.6984 9.22269Z" fill="#3F3D56"/>
<path d="M63.0758 9.22269C65.6941 9.22269 67.8166 7.15812 67.8166 4.61134C67.8166 2.06457 65.6941 0 63.0758 0C60.4575 0 58.335 2.06457 58.335 4.61134C58.335 7.15812 60.4575 9.22269 63.0758 9.22269Z" fill="#3F3D56"/>
<path d="M307.756 2.82062H296.12C295.891 2.82062 295.672 2.73228 295.51 2.57504C295.349 2.41781 295.258 2.20456 295.258 1.98219C295.258 1.75983 295.349 1.54657 295.51 1.38933C295.672 1.2321 295.891 1.14377 296.12 1.14377H307.756C307.985 1.14377 308.204 1.2321 308.366 1.38933C308.528 1.54657 308.618 1.75983 308.618 1.98219C308.618 2.20456 308.528 2.41781 308.366 2.57504C308.204 2.73228 307.985 2.82062 307.756 2.82062Z" fill="#3F3D56"/>
<path d="M307.756 5.9647H296.12C295.891 5.9647 295.672 5.87637 295.51 5.71914C295.349 5.5619 295.258 5.34864 295.258 5.12628C295.258 4.90392 295.349 4.69066 295.51 4.53343C295.672 4.37619 295.891 4.28786 296.12 4.28786H307.756C307.985 4.28786 308.204 4.37619 308.366 4.53343C308.528 4.69066 308.618 4.90392 308.618 5.12628C308.618 5.34864 308.528 5.5619 308.366 5.71914C308.204 5.87637 307.985 5.9647 307.756 5.9647Z" fill="#3F3D56"/>
<path d="M307.756 9.10881H296.12C295.891 9.10881 295.672 9.02048 295.51 8.86324C295.349 8.70601 295.258 8.49275 295.258 8.27038C295.258 8.04802 295.349 7.83476 295.51 7.67753C295.672 7.52029 295.891 7.43196 296.12 7.43196H307.756C307.985 7.43273 308.203 7.5214 308.364 7.67855C308.525 7.8357 308.615 8.04852 308.615 8.27038C308.615 8.49225 308.525 8.70507 308.364 8.86222C308.203 9.01937 307.985 9.10804 307.756 9.10881Z" fill="#3F3D56"/>
<path d="M222.421 33.0683H25.4613V147.933H222.421V33.0683Z" fill="#F0F0F0"/>
<path d="M308.618 33.0683H246.557V69.2619H308.618V33.0683Z" fill="#F0F0F0"/>
<path d="M296.237 85.8892H259.31C258.849 85.8892 258.406 85.711 258.08 85.3937C257.754 85.0764 257.571 84.6461 257.571 84.1974C257.571 83.7487 257.754 83.3184 258.08 83.0011C258.406 82.6839 258.849 82.5056 259.31 82.5056H296.237C296.698 82.5056 297.14 82.6839 297.467 83.0011C297.793 83.3184 297.976 83.7487 297.976 84.1974C297.976 84.6461 297.793 85.0764 297.467 85.3937C297.14 85.711 296.698 85.8892 296.237 85.8892H296.237Z" fill="#E4E4E4"/>
<path d="M290.283 80.0981H265.264C264.803 80.0981 264.36 79.9198 264.034 79.6026C263.708 79.2853 263.525 78.855 263.525 78.4063C263.525 77.9576 263.708 77.5273 264.034 77.21C264.36 76.8927 264.803 76.7145 265.264 76.7145H290.283C290.744 76.7145 291.187 76.8927 291.513 77.21C291.839 77.5273 292.022 77.9576 292.022 78.4063C292.022 78.855 291.839 79.2853 291.513 79.6026C291.187 79.9198 290.744 80.0981 290.283 80.0981Z" fill="#E4E4E4"/>
<path d="M308.618 98.8848H246.557V135.078H308.618V98.8848Z" fill="#F0F0F0"/>
<path d="M296.237 151.706H259.31C258.849 151.706 258.406 151.527 258.08 151.21C257.754 150.893 257.571 150.463 257.571 150.014C257.571 149.565 257.754 149.135 258.08 148.818C258.406 148.5 258.849 148.322 259.31 148.322H296.237C296.698 148.322 297.14 148.5 297.467 148.818C297.793 149.135 297.976 149.565 297.976 150.014C297.976 150.463 297.793 150.893 297.467 151.21C297.14 151.527 296.698 151.706 296.237 151.706H296.237Z" fill="#E4E4E4"/>
<path d="M290.283 145.915H265.264C264.803 145.915 264.36 145.736 264.034 145.419C263.708 145.102 263.525 144.671 263.525 144.223C263.525 143.774 263.708 143.344 264.034 143.026C264.36 142.709 264.803 142.531 265.264 142.531H290.283C290.744 142.532 291.185 142.71 291.511 143.028C291.836 143.345 292.019 143.775 292.019 144.223C292.019 144.671 291.836 145.101 291.511 145.418C291.185 145.735 290.744 145.914 290.283 145.915Z" fill="#E4E4E4"/>
<path d="M127.364 94.8609C135.481 94.8609 142.062 88.4602 142.062 80.5646C142.062 72.669 135.481 66.2684 127.364 66.2684C119.247 66.2684 112.666 72.669 112.666 80.5646C112.666 88.4602 119.247 94.8609 127.364 94.8609Z" fill="#9E616A"/>
<path d="M152.128 147.933H115.274L117.343 102.603L117.597 102.343L121.256 98.587H132.893L137.211 102.653L137.552 102.976L146.741 111.541L152.128 147.933Z" fill="#0000FF"/>
<path d="M125.476 147.933H97.4659C97.2807 130.586 97.134 117.498 97.134 117.498L98.565 116.651L98.5737 116.647L114.283 107.37L117.58 102.159L117.597 102.343L118.567 113.327C118.567 113.327 123.838 129.89 125.476 147.933Z" fill="#2F2E41"/>
<path d="M163.588 147.933H138.664C137.332 142.055 136.638 136.459 136.94 131.793C138.164 112.731 135.341 102.159 136.565 102.159L137.211 102.654L144.9 108.56L155.024 112.17L162.049 114.677L163.273 115.113V115.687C163.277 118.571 163.307 131.965 163.588 147.933Z" fill="#2F2E41"/>
<path d="M113.459 85.0374C113.459 85.0374 114.708 82.9043 114.418 75.7782C114.127 68.6521 125.283 72.6826 134.605 72.0028C143.927 71.323 141.954 83.8999 141.954 83.8999C141.954 83.8999 142.626 83.1523 144.066 77.0823C145.506 71.0123 142.237 64.9633 142.237 64.9633C141.274 58.5848 136.085 60.6291 136.085 60.6291C138.584 61.5754 138.104 63.5987 138.104 63.5987C135.989 59.9913 130.8 62.0356 130.8 62.0356C123.879 57.8113 116.865 63.3742 116.865 63.3742C108.504 65.2198 113.407 71.6871 113.407 71.6871C104.999 75.8201 113.459 85.0374 113.459 85.0374Z" fill="#2F2E41"/>
<path d="M89.3506 147.933C90.0659 134.019 90.6133 123.103 90.3978 122.26C89.7945 119.917 98.3064 116.743 98.565 116.651L98.5692 116.647H98.5737L100.198 117.498L101.388 147.933H89.3506Z" fill="#2F2E41"/>
<path d="M169.449 147.933H156.8L153.179 113.151L154.671 112.09C154.671 112.09 154.8 112.119 155.024 112.17C156.183 112.451 159.924 113.402 162.049 114.677C162.519 114.935 162.935 115.278 163.273 115.687C163.48 115.928 163.584 116.237 163.562 116.55C163.454 117.536 166.212 131.462 169.449 147.933Z" fill="#2F2E41"/>
<path d="M190.744 161.976H57.1387C56.6249 161.977 56.1324 162.176 55.7694 162.53C55.4064 162.884 55.2025 163.363 55.2025 163.863C55.2025 164.363 55.4064 164.842 55.7694 165.196C56.1324 165.549 56.6249 165.749 57.1387 165.749H190.744C190.999 165.75 191.252 165.701 191.487 165.607C191.723 165.512 191.937 165.373 192.117 165.198C192.298 165.023 192.441 164.815 192.539 164.586C192.636 164.356 192.687 164.111 192.687 163.863C192.687 163.615 192.636 163.369 192.539 163.14C192.441 162.911 192.298 162.703 192.117 162.528C191.937 162.353 191.723 162.214 191.487 162.119C191.252 162.025 190.999 161.976 190.744 161.976Z" fill="#CACACA"/>
<path d="M154.541 161.976V165.749H57.1387C56.6249 165.749 56.1324 165.549 55.7694 165.196C55.4064 164.842 55.2025 164.363 55.2025 163.863C55.2025 163.363 55.4064 162.884 55.7694 162.53C56.1324 162.176 56.6249 161.977 57.1387 161.976H154.541Z" fill="#3F3D56"/>
<path d="M154.541 167.636C156.684 167.636 158.42 165.947 158.42 163.863C158.42 161.779 156.684 160.09 154.541 160.09C152.399 160.09 150.662 161.779 150.662 163.863C150.662 165.947 152.399 167.636 154.541 167.636Z" fill="#3F3D56"/>
<path d="M123.941 195.304C122.358 195.304 120.81 194.847 119.493 193.991C118.176 193.136 117.15 191.919 116.544 190.496C115.938 189.073 115.779 187.507 116.088 185.996C116.397 184.485 117.16 183.098 118.28 182.008C119.399 180.919 120.826 180.177 122.379 179.877C123.932 179.576 125.542 179.731 127.005 180.32C128.469 180.91 129.719 181.908 130.599 183.189C131.479 184.469 131.948 185.975 131.948 187.516C131.946 189.58 131.102 191.56 129.6 193.02C128.099 194.48 126.064 195.302 123.941 195.304ZM123.941 180.326C122.48 180.326 121.051 180.748 119.835 181.538C118.62 182.328 117.672 183.451 117.113 184.764C116.554 186.078 116.407 187.524 116.692 188.918C116.978 190.313 117.681 191.594 118.715 192.599C119.749 193.605 121.066 194.289 122.499 194.567C123.933 194.844 125.419 194.702 126.77 194.158C128.12 193.613 129.275 192.692 130.087 191.51C130.899 190.327 131.332 188.937 131.332 187.516C131.33 185.61 130.551 183.782 129.165 182.435C127.78 181.087 125.901 180.329 123.941 180.326V180.326Z" fill="#0000FF"/>
<path d="M122.884 191.709C122.802 191.709 122.724 191.678 122.666 191.622C122.608 191.565 122.576 191.489 122.576 191.41V183.621C122.576 183.582 122.583 183.543 122.598 183.506C122.614 183.469 122.636 183.436 122.665 183.408C122.694 183.38 122.728 183.357 122.765 183.342C122.803 183.327 122.843 183.319 122.884 183.319C122.925 183.319 122.965 183.327 123.002 183.342C123.04 183.357 123.074 183.38 123.103 183.408C123.131 183.436 123.154 183.469 123.169 183.506C123.185 183.543 123.192 183.582 123.192 183.621V191.41C123.192 191.489 123.159 191.565 123.102 191.622C123.044 191.678 122.966 191.709 122.884 191.709Z" fill="#0000FF"/>
<path d="M124.999 191.709C124.917 191.709 124.839 191.678 124.781 191.622C124.723 191.565 124.691 191.489 124.691 191.41V183.621C124.69 183.582 124.698 183.543 124.713 183.506C124.729 183.469 124.751 183.436 124.78 183.408C124.809 183.38 124.843 183.357 124.88 183.342C124.918 183.327 124.958 183.319 124.999 183.319C125.04 183.319 125.08 183.327 125.117 183.342C125.155 183.357 125.189 183.38 125.218 183.408C125.246 183.436 125.269 183.469 125.284 183.506C125.299 183.543 125.307 183.582 125.307 183.621V191.41C125.307 191.489 125.274 191.565 125.217 191.622C125.159 191.678 125.081 191.709 124.999 191.709Z" fill="#0000FF"/>
<path d="M87.2676 187.516C87.2676 185.975 87.7372 184.469 88.617 183.189C89.4968 181.908 90.7473 180.91 92.2104 180.32C93.6735 179.731 95.2834 179.576 96.8366 179.877C98.3898 180.177 99.8165 180.919 100.936 182.008C102.056 183.098 102.819 184.485 103.128 185.996C103.437 187.507 103.278 189.073 102.672 190.496C102.066 191.919 101.04 193.136 99.723 193.991C98.4062 194.847 96.8582 195.304 95.2745 195.304C93.1517 195.302 91.1165 194.48 89.6154 193.02C88.1143 191.56 87.27 189.58 87.2676 187.516ZM87.8835 187.516C87.8835 188.937 88.317 190.327 89.1291 191.51C89.9413 192.692 91.0956 193.613 92.4461 194.158C93.7967 194.702 95.2828 194.844 96.7165 194.567C98.1502 194.289 99.4672 193.605 100.501 192.599C101.534 191.594 102.238 190.313 102.524 188.918C102.809 187.524 102.662 186.078 102.103 184.764C101.544 183.451 100.596 182.328 99.3808 181.538C98.1653 180.748 96.7363 180.326 95.2745 180.326C93.315 180.329 91.4364 181.087 90.0507 182.435C88.6651 183.782 87.8857 185.61 87.8835 187.516H87.8835Z" fill="#3F3D56"/>
<path d="M98.733 190.138C98.7894 190.138 98.8442 190.12 98.889 190.086C98.9337 190.053 98.9659 190.006 98.9806 189.953C98.9952 189.9 98.9914 189.844 98.9698 189.793C98.9483 189.743 98.9101 189.7 98.8613 189.673L95.0198 187.516L98.8613 185.358C98.9201 185.325 98.963 185.271 98.9806 185.207C98.9982 185.143 98.989 185.075 98.955 185.018C98.9211 184.961 98.8651 184.919 98.7995 184.902C98.7339 184.885 98.664 184.894 98.6052 184.927L94.3795 187.3C94.3406 187.322 94.3082 187.353 94.2858 187.391C94.2633 187.429 94.2515 187.472 94.2515 187.516C94.2515 187.559 94.2633 187.602 94.2858 187.64C94.3082 187.678 94.3406 187.709 94.3795 187.731L98.6052 190.104C98.644 190.126 98.6881 190.138 98.733 190.138Z" fill="#3F3D56"/>
<path d="M93.067 191.003C93.1349 191.003 93.2 190.977 93.2481 190.93C93.2961 190.883 93.3231 190.82 93.3231 190.754V184.277C93.3231 184.211 93.2961 184.148 93.2481 184.101C93.2 184.054 93.1349 184.028 93.067 184.028C92.999 184.028 92.9339 184.054 92.8859 184.101C92.8378 184.148 92.8109 184.211 92.8109 184.277V190.754C92.8109 190.82 92.8378 190.883 92.8859 190.93C92.9339 190.977 92.999 191.003 93.067 191.003Z" fill="#3F3D56"/>
<path d="M152.608 195.304C151.025 195.304 149.477 194.847 148.16 193.991C146.843 193.136 145.817 191.919 145.211 190.496C144.605 189.073 144.446 187.507 144.755 185.996C145.064 184.485 145.827 183.098 146.946 182.008C148.066 180.919 149.493 180.177 151.046 179.877C152.599 179.576 154.209 179.731 155.672 180.32C157.135 180.91 158.386 181.908 159.266 183.189C160.146 184.469 160.615 185.975 160.615 187.516C160.613 189.58 159.768 191.56 158.267 193.02C156.766 194.48 154.731 195.302 152.608 195.304ZM152.608 180.326C151.146 180.326 149.717 180.748 148.502 181.538C147.287 182.328 146.339 183.451 145.78 184.764C145.22 186.078 145.074 187.524 145.359 188.918C145.644 190.313 146.348 191.594 147.382 192.599C148.416 193.605 149.733 194.289 151.166 194.567C152.6 194.844 154.086 194.702 155.437 194.158C156.787 193.613 157.941 192.692 158.754 191.51C159.566 190.327 159.999 188.937 159.999 187.516C159.997 185.61 159.218 183.782 157.832 182.435C156.446 181.087 154.568 180.329 152.608 180.326V180.326Z" fill="#3F3D56"/>
<path d="M149.15 190.138C149.093 190.138 149.039 190.12 148.994 190.086C148.949 190.053 148.917 190.006 148.902 189.953C148.888 189.9 148.891 189.844 148.913 189.793C148.934 189.743 148.973 189.7 149.021 189.673L152.863 187.516L149.021 185.358C148.963 185.325 148.92 185.271 148.903 185.207C148.885 185.143 148.895 185.076 148.928 185.018C148.962 184.961 149.018 184.92 149.084 184.902C149.149 184.885 149.219 184.894 149.278 184.927L153.503 187.3C153.542 187.322 153.574 187.353 153.597 187.391C153.619 187.429 153.631 187.472 153.631 187.516C153.631 187.559 153.619 187.602 153.597 187.64C153.574 187.678 153.542 187.709 153.503 187.731L149.278 190.104C149.239 190.126 149.195 190.138 149.15 190.138Z" fill="#3F3D56"/>
<path d="M154.816 191.003C154.748 191.003 154.683 190.977 154.635 190.93C154.587 190.883 154.56 190.82 154.56 190.754V184.277C154.56 184.211 154.587 184.148 154.635 184.101C154.683 184.054 154.748 184.028 154.816 184.028C154.884 184.028 154.949 184.054 154.997 184.101C155.045 184.148 155.072 184.211 155.072 184.277V190.754C155.072 190.82 155.045 190.883 154.997 190.93C154.949 190.977 154.884 191.003 154.816 191.003Z" fill="#3F3D56"/>
<path d="M46.9126 193.386C46.4894 192.973 46.1643 192.475 45.9602 191.928C45.7561 191.38 45.6779 190.795 45.7313 190.215C45.7847 189.634 45.9682 189.072 46.269 188.568C46.5698 188.064 46.9805 187.631 47.4722 187.298L43.5327 173.662L50.7414 175.901L53.3773 188.506C53.8974 189.347 54.0824 190.344 53.8973 191.308C53.7122 192.273 53.1698 193.138 52.373 193.739C51.5761 194.34 50.5801 194.637 49.5737 194.571C48.5673 194.506 47.6205 194.084 46.9126 193.386Z" fill="#FFB6B6"/>
<path d="M44.9858 125.447L43.4926 123.936C43.4926 123.936 38.8758 127.02 39.8527 136.582C40.5742 143.644 38.2942 146.639 38.549 167.167L44.9858 185.966L52.4309 182.17L47.0445 158.974L44.9858 125.447Z" fill="#0000FF"/>
<path d="M50.571 278.023H55.9094L58.4492 257.995L50.5699 257.995L50.571 278.023Z" fill="#FFB6B6"/>
<path d="M49.2094 276.328L59.7226 276.328H59.723C61.4998 276.328 63.2039 277.014 64.4603 278.236C65.7168 279.458 66.4227 281.116 66.4228 282.844V283.056L49.2097 283.057L49.2094 276.328Z" fill="#2F2E41"/>
<path d="M66.1393 276.184L71.4381 276.816L76.4655 257.237L68.6453 256.305L66.1393 276.184Z" fill="#FFB6B6"/>
<path d="M64.9998 274.34L75.4349 275.585L75.4353 275.585C77.1989 275.795 78.8044 276.679 79.8985 278.04C80.9926 279.402 81.4858 281.131 81.2696 282.846L81.2431 283.057L64.158 281.019L64.9998 274.34Z" fill="#2F2E41"/>
<path d="M47.804 175.334C47.804 175.334 37.5206 182.17 42.662 200.674L49.6152 272.498L57.8759 272.441L61.3749 237L63.7528 212.05L71.6983 237.851L65.1631 269.51L74.8084 270.497L86.3646 233.681L80.7917 181.263L47.804 175.334Z" fill="#2F2E41"/>
<path d="M72.6168 121.995L67.3879 117.904L53.5214 117.349L43.4926 123.936C43.4926 123.936 42.4574 147.388 49.2437 168.28L45.6858 177.007L81.2596 181.348L72.6168 121.995Z" fill="#0000FF"/>
<path d="M61.4055 112.33C67.9745 112.33 73.2997 107.15 73.2997 100.761C73.2997 94.3709 67.9745 89.1911 61.4055 89.1911C54.8364 89.1911 49.5112 94.3709 49.5112 100.761C49.5112 107.15 54.8364 112.33 61.4055 112.33Z" fill="#FFB6B6"/>
<path d="M64.5255 86.4589H61.8822C60.0404 85.925 58.0958 85.8168 56.2034 86.143C54.3111 86.4693 52.5232 87.2209 50.9822 88.3381C49.4413 89.4552 48.1898 90.907 47.3277 92.5777C46.4655 94.2484 46.0164 96.0919 46.0162 97.9613L41.8995 111.175C41.7808 111.556 41.7555 111.959 41.8256 112.351C41.8957 112.743 42.0592 113.114 42.3031 113.434C42.547 113.754 42.8645 114.014 43.2301 114.193C43.5958 114.372 43.9994 114.465 44.4087 114.465H46.4181C47.2595 113.299 47.6266 111.871 47.4482 110.457C47.8218 111.343 48.0837 112.268 48.2279 113.215C48.2745 113.631 48.2657 114.051 48.2016 114.465H65.6828C65.7959 112.797 65.2279 111.153 64.1022 109.89C65.5107 111.259 66.7348 112.796 67.7452 114.465H68.0736C68.7689 114.465 69.4357 114.196 69.9274 113.718C70.419 113.24 70.6953 112.591 70.6953 111.915V98.9615H77.3792C77.3792 97.3197 77.0467 95.6939 76.4008 94.177C75.7548 92.6601 74.808 91.2818 73.6144 90.1208C72.4208 88.9599 71.0039 88.0389 69.4444 87.4106C67.8849 86.7823 66.2135 86.4589 64.5255 86.4589Z" fill="#2F2E41"/>
<path d="M77.7614 192.385C77.3382 191.973 77.0131 191.475 76.809 190.927C76.6049 190.38 76.5268 189.795 76.5801 189.214C76.6335 188.634 76.817 188.072 77.1178 187.568C77.4186 187.064 77.8293 186.631 78.3211 186.298L74.3815 172.662L81.5903 174.9L84.2261 187.506C84.7462 188.347 84.9312 189.344 84.7461 190.308C84.561 191.273 84.0186 192.137 83.2218 192.739C82.4249 193.34 81.4289 193.636 80.4225 193.571C79.4161 193.506 78.4693 193.084 77.7614 192.385Z" fill="#FFB6B6"/>
<path d="M68.1077 124.583L72.6168 121.995C72.6168 121.995 79.709 120.779 80.466 129.97C81.2231 139.161 82.3135 163.019 82.3135 163.019L84.5256 183.131L76.3167 184.833L66.8817 157.33L68.1077 124.583Z" fill="#0000FF"/>
<path d="M109.513 284H0.514147C0.377787 284 0.247019 283.947 0.150598 283.854C0.0541764 283.76 0 283.632 0 283.5C0 283.367 0.0541764 283.24 0.150598 283.146C0.247019 283.052 0.377787 283 0.514147 283H109.513C109.65 283 109.78 283.052 109.877 283.146C109.973 283.24 110.027 283.367 110.027 283.5C110.027 283.632 109.973 283.76 109.877 283.854C109.78 283.947 109.65 284 109.513 284Z" fill="#CACACA"/>
</svg>
