<svg width="268" height="248" viewBox="0 0 268 248" fill="none" xmlns="http://www.w3.org/2000/svg">
<g clip-path="url(#clip0)">
<path opacity="0.1" d="M76.9889 42.533H56.8854C55.7258 42.533 54.7858 43.6213 54.7858 44.9639V48.6087C54.7858 49.9512 55.7258 51.0396 56.8854 51.0396H76.9889C78.1485 51.0396 79.0885 49.9512 79.0885 48.6087V44.9639C79.0885 43.6213 78.1485 42.533 76.9889 42.533Z" fill="#0000FF"/>
<path opacity="0.1" d="M102.422 51.0396H82.3185C81.1589 51.0396 80.2189 52.1279 80.2189 53.4705V57.1153C80.2189 58.4578 81.1589 59.5462 82.3185 59.5462H102.422C103.582 59.5462 104.522 58.4578 104.522 57.1153V53.4705C104.522 52.1279 103.582 51.0396 102.422 51.0396Z" fill="#0000FF"/>
<path opacity="0.1" d="M127.855 59.5462H107.752C106.592 59.5462 105.652 60.6345 105.652 61.9771V65.6218C105.652 66.9644 106.592 68.0528 107.752 68.0528H127.855C129.015 68.0528 129.955 66.9644 129.955 65.6218V61.9771C129.955 60.6345 129.015 59.5462 127.855 59.5462Z" fill="#0000FF"/>
<path opacity="0.1" d="M76.9889 29.7731H56.8854C55.7258 29.7731 54.7858 30.8614 54.7858 32.204V35.8487C54.7858 37.1913 55.7258 38.2797 56.8854 38.2797H76.9889C78.1485 38.2797 79.0885 37.1913 79.0885 35.8487V32.204C79.0885 30.8614 78.1485 29.7731 76.9889 29.7731Z" fill="#0000FF"/>
<path opacity="0.1" d="M102.422 38.2797H82.3185C81.1589 38.2797 80.2189 39.3681 80.2189 40.7106V44.3554C80.2189 45.6979 81.1589 46.7863 82.3185 46.7863H102.422C103.582 46.7863 104.522 45.6979 104.522 44.3554V40.7106C104.522 39.3681 103.582 38.2797 102.422 38.2797Z" fill="#0000FF"/>
<path opacity="0.1" d="M127.855 46.7863H107.752C106.592 46.7863 105.652 47.8746 105.652 49.2172V52.862C105.652 54.2045 106.592 55.2929 107.752 55.2929H127.855C129.015 55.2929 129.955 54.2045 129.955 52.862V49.2172C129.955 47.8746 129.015 46.7863 127.855 46.7863Z" fill="#0000FF"/>
<path opacity="0.1" d="M156.114 42.533H136.011C134.851 42.533 133.911 43.6213 133.911 44.9639V48.6087C133.911 49.9512 134.851 51.0396 136.011 51.0396H156.114C157.274 51.0396 158.214 49.9512 158.214 48.6087V44.9639C158.214 43.6213 157.274 42.533 156.114 42.533Z" fill="#0000FF"/>
<path opacity="0.1" d="M181.547 51.0396H161.444C160.284 51.0396 159.344 52.1279 159.344 53.4705V57.1153C159.344 58.4578 160.284 59.5462 161.444 59.5462H181.547C182.707 59.5462 183.647 58.4578 183.647 57.1153V53.4705C183.647 52.1279 182.707 51.0396 181.547 51.0396Z" fill="#0000FF"/>
<path opacity="0.1" d="M206.98 59.5462H186.877C185.717 59.5462 184.777 60.6345 184.777 61.9771V65.6218C184.777 66.9644 185.717 68.0528 186.877 68.0528H206.98C208.14 68.0528 209.08 66.9644 209.08 65.6218V61.9771C209.08 60.6345 208.14 59.5462 206.98 59.5462Z" fill="#0000FF"/>
<path opacity="0.1" d="M156.114 29.7731H136.011C134.851 29.7731 133.911 30.8614 133.911 32.204V35.8487C133.911 37.1913 134.851 38.2797 136.011 38.2797H156.114C157.274 38.2797 158.214 37.1913 158.214 35.8487V32.204C158.214 30.8614 157.274 29.7731 156.114 29.7731Z" fill="#0000FF"/>
<path opacity="0.1" d="M181.547 38.2797H161.444C160.284 38.2797 159.344 39.3681 159.344 40.7106V44.3554C159.344 45.6979 160.284 46.7863 161.444 46.7863H181.547C182.707 46.7863 183.647 45.6979 183.647 44.3554V40.7106C183.647 39.3681 182.707 38.2797 181.547 38.2797Z" fill="#0000FF"/>
<path opacity="0.1" d="M206.98 46.7863H186.877C185.717 46.7863 184.777 47.8746 184.777 49.2172V52.862C184.777 54.2045 185.717 55.2929 186.877 55.2929H206.98C208.14 55.2929 209.08 54.2045 209.08 52.862V49.2172C209.08 47.8746 208.14 46.7863 206.98 46.7863Z" fill="#0000FF"/>
<path opacity="0.1" d="M76.9889 12.7599H56.8854C55.7258 12.7599 54.7858 13.8482 54.7858 15.1908V18.8356C54.7858 20.1781 55.7258 21.2665 56.8854 21.2665H76.9889C78.1485 21.2665 79.0885 20.1781 79.0885 18.8356V15.1908C79.0885 13.8482 78.1485 12.7599 76.9889 12.7599Z" fill="#0000FF"/>
<path opacity="0.1" d="M102.422 21.2665H82.3185C81.1589 21.2665 80.2189 22.3548 80.2189 23.6974V27.3422C80.2189 28.6847 81.1589 29.7731 82.3185 29.7731H102.422C103.582 29.7731 104.522 28.6847 104.522 27.3422V23.6974C104.522 22.3548 103.582 21.2665 102.422 21.2665Z" fill="#0000FF"/>
<path opacity="0.1" d="M127.855 29.7731H107.752C106.592 29.7731 105.652 30.8614 105.652 32.204V35.8487C105.652 37.1913 106.592 38.2797 107.752 38.2797H127.855C129.015 38.2797 129.955 37.1913 129.955 35.8487V32.204C129.955 30.8614 129.015 29.7731 127.855 29.7731Z" fill="#0000FF"/>
<path opacity="0.1" d="M76.9889 0H56.8854C55.7258 0 54.7858 1.08836 54.7858 2.43092V6.07567C54.7858 7.41823 55.7258 8.5066 56.8854 8.5066H76.9889C78.1485 8.5066 79.0885 7.41823 79.0885 6.07567V2.43092C79.0885 1.08836 78.1485 0 76.9889 0Z" fill="#0000FF"/>
<path opacity="0.1" d="M102.422 8.50659H82.3185C81.1589 8.50659 80.2189 9.59495 80.2189 10.9375V14.5823C80.2189 15.9248 81.1589 17.0132 82.3185 17.0132H102.422C103.582 17.0132 104.522 15.9248 104.522 14.5823V10.9375C104.522 9.59495 103.582 8.50659 102.422 8.50659Z" fill="#0000FF"/>
<path opacity="0.1" d="M127.855 17.0132H107.752C106.592 17.0132 105.652 18.1015 105.652 19.4441V23.0889C105.652 24.4314 106.592 25.5198 107.752 25.5198H127.855C129.015 25.5198 129.955 24.4314 129.955 23.0889V19.4441C129.955 18.1015 129.015 17.0132 127.855 17.0132Z" fill="#0000FF"/>
<path opacity="0.1" d="M156.114 12.7599H136.011C134.851 12.7599 133.911 13.8482 133.911 15.1908V18.8356C133.911 20.1781 134.851 21.2665 136.011 21.2665H156.114C157.274 21.2665 158.214 20.1781 158.214 18.8356V15.1908C158.214 13.8482 157.274 12.7599 156.114 12.7599Z" fill="#0000FF"/>
<path opacity="0.1" d="M181.547 21.2665H161.444C160.284 21.2665 159.344 22.3548 159.344 23.6974V27.3422C159.344 28.6847 160.284 29.7731 161.444 29.7731H181.547C182.707 29.7731 183.647 28.6847 183.647 27.3422V23.6974C183.647 22.3548 182.707 21.2665 181.547 21.2665Z" fill="#0000FF"/>
<path opacity="0.1" d="M206.98 29.7731H186.877C185.717 29.7731 184.777 30.8614 184.777 32.204V35.8487C184.777 37.1913 185.717 38.2797 186.877 38.2797H206.98C208.14 38.2797 209.08 37.1913 209.08 35.8487V32.204C209.08 30.8614 208.14 29.7731 206.98 29.7731Z" fill="#0000FF"/>
<path opacity="0.1" d="M156.114 0H136.011C134.851 0 133.911 1.08836 133.911 2.43092V6.07567C133.911 7.41823 134.851 8.5066 136.011 8.5066H156.114C157.274 8.5066 158.214 7.41823 158.214 6.07567V2.43092C158.214 1.08836 157.274 0 156.114 0Z" fill="#0000FF"/>
<path opacity="0.1" d="M181.547 8.50659H161.444C160.284 8.50659 159.344 9.59495 159.344 10.9375V14.5823C159.344 15.9248 160.284 17.0132 161.444 17.0132H181.547C182.707 17.0132 183.647 15.9248 183.647 14.5823V10.9375C183.647 9.59495 182.707 8.50659 181.547 8.50659Z" fill="#0000FF"/>
<path opacity="0.1" d="M206.98 17.0132H186.877C185.717 17.0132 184.777 18.1015 184.777 19.4441V23.0889C184.777 24.4314 185.717 25.5198 186.877 25.5198H206.98C208.14 25.5198 209.08 24.4314 209.08 23.0889V19.4441C209.08 18.1015 208.14 17.0132 206.98 17.0132Z" fill="#0000FF"/>
<path opacity="0.1" d="M76.9889 194.016H56.8854C55.7258 194.016 54.7858 195.104 54.7858 196.447V200.091C54.7858 201.434 55.7258 202.522 56.8854 202.522H76.9889C78.1485 202.522 79.0885 201.434 79.0885 200.091V196.447C79.0885 195.104 78.1485 194.016 76.9889 194.016Z" fill="#0000FF"/>
<path opacity="0.1" d="M102.422 202.522H82.3185C81.1589 202.522 80.2189 203.611 80.2189 204.953V208.598C80.2189 209.941 81.1589 211.029 82.3185 211.029H102.422C103.582 211.029 104.522 209.941 104.522 208.598V204.953C104.522 203.611 103.582 202.522 102.422 202.522Z" fill="#0000FF"/>
<path opacity="0.1" d="M127.855 211.029H107.752C106.592 211.029 105.652 212.117 105.652 213.46V217.105C105.652 218.447 106.592 219.536 107.752 219.536H127.855C129.015 219.536 129.955 218.447 129.955 217.105V213.46C129.955 212.117 129.015 211.029 127.855 211.029Z" fill="#0000FF"/>
<path opacity="0.1" d="M76.9889 181.256H56.8854C55.7258 181.256 54.7858 182.344 54.7858 183.687V187.332C54.7858 188.674 55.7258 189.763 56.8854 189.763H76.9889C78.1485 189.763 79.0885 188.674 79.0885 187.332V183.687C79.0885 182.344 78.1485 181.256 76.9889 181.256Z" fill="#0000FF"/>
<path opacity="0.1" d="M102.422 189.763H82.3185C81.1589 189.763 80.2189 190.851 80.2189 192.193V195.838C80.2189 197.181 81.1589 198.269 82.3185 198.269H102.422C103.582 198.269 104.522 197.181 104.522 195.838V192.193C104.522 190.851 103.582 189.763 102.422 189.763Z" fill="#0000FF"/>
<path opacity="0.1" d="M127.855 198.269H107.752C106.592 198.269 105.652 199.357 105.652 200.7V204.345C105.652 205.687 106.592 206.776 107.752 206.776H127.855C129.015 206.776 129.955 205.687 129.955 204.345V200.7C129.955 199.357 129.015 198.269 127.855 198.269Z" fill="#0000FF"/>
<path opacity="0.1" d="M156.114 194.016H136.011C134.851 194.016 133.911 195.104 133.911 196.447V200.091C133.911 201.434 134.851 202.522 136.011 202.522H156.114C157.274 202.522 158.214 201.434 158.214 200.091V196.447C158.214 195.104 157.274 194.016 156.114 194.016Z" fill="#0000FF"/>
<path opacity="0.1" d="M181.547 202.522H161.444C160.284 202.522 159.344 203.611 159.344 204.953V208.598C159.344 209.941 160.284 211.029 161.444 211.029H181.547C182.707 211.029 183.647 209.941 183.647 208.598V204.953C183.647 203.611 182.707 202.522 181.547 202.522Z" fill="#0000FF"/>
<path opacity="0.1" d="M206.98 211.029H186.877C185.717 211.029 184.777 212.117 184.777 213.46V217.105C184.777 218.447 185.717 219.536 186.877 219.536H206.98C208.14 219.536 209.08 218.447 209.08 217.105V213.46C209.08 212.117 208.14 211.029 206.98 211.029Z" fill="#0000FF"/>
<path opacity="0.1" d="M156.114 181.256H136.011C134.851 181.256 133.911 182.344 133.911 183.687V187.332C133.911 188.674 134.851 189.763 136.011 189.763H156.114C157.274 189.763 158.214 188.674 158.214 187.332V183.687C158.214 182.344 157.274 181.256 156.114 181.256Z" fill="#0000FF"/>
<path opacity="0.1" d="M181.547 189.763H161.444C160.284 189.763 159.344 190.851 159.344 192.193V195.838C159.344 197.181 160.284 198.269 161.444 198.269H181.547C182.707 198.269 183.647 197.181 183.647 195.838V192.193C183.647 190.851 182.707 189.763 181.547 189.763Z" fill="#0000FF"/>
<path opacity="0.1" d="M206.98 198.269H186.877C185.717 198.269 184.777 199.357 184.777 200.7V204.345C184.777 205.687 185.717 206.776 186.877 206.776H206.98C208.14 206.776 209.08 205.687 209.08 204.345V200.7C209.08 199.357 208.14 198.269 206.98 198.269Z" fill="#0000FF"/>
<path opacity="0.1" d="M76.9889 164.243H56.8854C55.7258 164.243 54.7858 165.331 54.7858 166.674V170.318C54.7858 171.661 55.7258 172.749 56.8854 172.749H76.9889C78.1485 172.749 79.0885 171.661 79.0885 170.318V166.674C79.0885 165.331 78.1485 164.243 76.9889 164.243Z" fill="#0000FF"/>
<path opacity="0.1" d="M102.422 172.749H82.3185C81.1589 172.749 80.2189 173.838 80.2189 175.18V178.825C80.2189 180.168 81.1589 181.256 82.3185 181.256H102.422C103.582 181.256 104.522 180.168 104.522 178.825V175.18C104.522 173.838 103.582 172.749 102.422 172.749Z" fill="#0000FF"/>
<path opacity="0.1" d="M127.855 181.256H107.752C106.592 181.256 105.652 182.344 105.652 183.687V187.332C105.652 188.674 106.592 189.763 107.752 189.763H127.855C129.015 189.763 129.955 188.674 129.955 187.332V183.687C129.955 182.344 129.015 181.256 127.855 181.256Z" fill="#0000FF"/>
<path opacity="0.1" d="M76.9889 151.483H56.8854C55.7258 151.483 54.7858 152.571 54.7858 153.914V157.559C54.7858 158.901 55.7258 159.989 56.8854 159.989H76.9889C78.1485 159.989 79.0885 158.901 79.0885 157.559V153.914C79.0885 152.571 78.1485 151.483 76.9889 151.483Z" fill="#0000FF"/>
<path opacity="0.1" d="M102.422 159.989H82.3185C81.1589 159.989 80.2189 161.078 80.2189 162.42V166.065C80.2189 167.408 81.1589 168.496 82.3185 168.496H102.422C103.582 168.496 104.522 167.408 104.522 166.065V162.42C104.522 161.078 103.582 159.989 102.422 159.989Z" fill="#0000FF"/>
<path opacity="0.1" d="M127.855 168.496H107.752C106.592 168.496 105.652 169.584 105.652 170.927V174.572C105.652 175.914 106.592 177.003 107.752 177.003H127.855C129.015 177.003 129.955 175.914 129.955 174.572V170.927C129.955 169.584 129.015 168.496 127.855 168.496Z" fill="#0000FF"/>
<path opacity="0.1" d="M156.114 164.243H136.011C134.851 164.243 133.911 165.331 133.911 166.674V170.318C133.911 171.661 134.851 172.749 136.011 172.749H156.114C157.274 172.749 158.214 171.661 158.214 170.318V166.674C158.214 165.331 157.274 164.243 156.114 164.243Z" fill="#0000FF"/>
<path opacity="0.1" d="M181.547 172.749H161.444C160.284 172.749 159.344 173.838 159.344 175.18V178.825C159.344 180.168 160.284 181.256 161.444 181.256H181.547C182.707 181.256 183.647 180.168 183.647 178.825V175.18C183.647 173.838 182.707 172.749 181.547 172.749Z" fill="#0000FF"/>
<path opacity="0.1" d="M206.98 181.256H186.877C185.717 181.256 184.777 182.344 184.777 183.687V187.332C184.777 188.674 185.717 189.763 186.877 189.763H206.98C208.14 189.763 209.08 188.674 209.08 187.332V183.687C209.08 182.344 208.14 181.256 206.98 181.256Z" fill="#0000FF"/>
<path opacity="0.1" d="M156.114 151.483H136.011C134.851 151.483 133.911 152.571 133.911 153.914V157.559C133.911 158.901 134.851 159.989 136.011 159.989H156.114C157.274 159.989 158.214 158.901 158.214 157.559V153.914C158.214 152.571 157.274 151.483 156.114 151.483Z" fill="#0000FF"/>
<path opacity="0.1" d="M181.547 159.989H161.444C160.284 159.989 159.344 161.078 159.344 162.42V166.065C159.344 167.408 160.284 168.496 161.444 168.496H181.547C182.707 168.496 183.647 167.408 183.647 166.065V162.42C183.647 161.078 182.707 159.989 181.547 159.989Z" fill="#0000FF"/>
<path opacity="0.1" d="M206.98 168.496H186.877C185.717 168.496 184.777 169.584 184.777 170.927V174.572C184.777 175.914 185.717 177.003 186.877 177.003H206.98C208.14 177.003 209.08 175.914 209.08 174.572V170.927C209.08 169.584 208.14 168.496 206.98 168.496Z" fill="#0000FF"/>
<path opacity="0.1" d="M136.313 248C204.75 248 260.229 242.727 260.229 236.222C260.229 229.717 204.75 224.443 136.313 224.443C67.8762 224.443 12.3972 229.717 12.3972 236.222C12.3972 242.727 67.8762 248 136.313 248Z" fill="#0000FF"/>
<path d="M23.9213 61.1166C35.6064 66.9796 42.3207 79.1113 42.3207 79.1113C42.3207 79.1113 30.0874 81.7288 18.3994 75.869C6.71151 70.0093 0 57.8743 0 57.8743C0 57.8743 12.2333 55.2536 23.9213 61.1166Z" fill="#0000FF"/>
<path d="M59.7819 38.6069C63.3963 31.7362 69.5511 28.4644 69.5511 28.4644C69.5511 28.4644 69.8337 36.297 66.2307 43.1481C62.6276 49.9992 56.4587 53.2677 56.4587 53.2677C56.4587 53.2677 56.1648 45.4383 59.7819 38.6069Z" fill="#0000FF"/>
<path d="M33.2128 45.9585C35.7985 56.6441 42.9255 63.6784 42.9255 63.6784C42.9255 63.6784 45.8616 53.3822 43.2759 42.6933C40.6902 32.0044 33.5604 24.9734 33.5604 24.9734C33.5604 24.9734 30.6243 35.2696 33.2128 45.9585Z" fill="#46455B"/>
<path d="M237.562 45.4776H35.629C34.5037 45.4776 33.5915 46.5337 33.5915 47.8365V162.538C33.5915 163.841 34.5037 164.897 35.629 164.897H237.562C238.687 164.897 239.6 163.841 239.6 162.538V47.8365C239.6 46.5337 238.687 45.4776 237.562 45.4776Z" fill="#3F3D56"/>
<path opacity="0.1" d="M33.5915 157.699H239.6V162.538C239.6 163.164 239.385 163.764 239.003 164.206C238.621 164.649 238.103 164.897 237.562 164.897H35.629C35.0886 164.897 34.5704 164.649 34.1883 164.206C33.8062 163.764 33.5915 163.164 33.5915 162.538V157.699Z" fill="black"/>
<path d="M68.2088 148.865H54.3619C53.9717 148.865 53.6554 149.232 53.6554 149.683V156.881C53.6554 157.333 53.9717 157.699 54.3619 157.699H68.2088C68.599 157.699 68.9153 157.333 68.9153 156.881V149.683C68.9153 149.232 68.599 148.865 68.2088 148.865Z" fill="#0000FF"/>
<path d="M83.0448 156.391H73.7193C73.4072 156.391 73.1541 156.683 73.1541 157.045C73.1541 157.406 73.4072 157.699 73.7193 157.699H83.0448C83.3569 157.699 83.61 157.406 83.61 157.045C83.61 156.683 83.3569 156.391 83.0448 156.391Z" fill="#0000FF"/>
<path d="M63.871 68.8315C71.3286 70.4248 78.9359 68.8314 86.3624 67.7518L108.933 64.48C109.846 64.3459 111.174 63.7144 111.711 65.0068C112.013 65.7298 111.81 67.297 111.832 68.128C111.892 70.4183 111.886 72.7085 111.832 74.9987C111.73 79.3764 111.454 83.7442 111.1 88.1022C110.414 96.6317 109.442 105.115 108.955 113.678C108.707 118.036 108.582 122.407 108.693 126.765C108.718 127.805 108.755 128.845 108.809 129.883C108.868 131.044 109.317 132.768 108.224 133.544C107.599 133.989 106.37 133.966 105.655 134.097C104.524 134.303 103.394 134.466 102.241 134.601C94.6423 135.481 86.9445 135.114 79.3174 135.062L56.2863 134.924L50.6684 134.888C50.1598 134.888 48.3258 135.242 48.0121 134.542C47.8793 134.244 48.2325 132.85 48.2947 132.477C48.3813 131.862 48.4755 131.248 48.5773 130.635C49.2329 126.333 50.0072 122.057 50.7871 117.784C52.4629 108.623 54.1782 99.4159 54.8677 90.0587C55.2097 85.3637 54.9836 80.6262 55.4018 75.941C55.5968 73.7653 55.8285 68.91 58.3294 68.7169C60.4489 68.5534 62.6305 68.7169 64.7555 68.7169C64.868 68.7169 64.9758 68.6652 65.0553 68.5732C65.1348 68.4812 65.1794 68.3563 65.1794 68.2262C65.1794 68.096 65.1348 67.9712 65.0553 67.8792C64.9758 67.7871 64.868 67.7354 64.7555 67.7354C62.7492 67.7354 60.7399 67.6733 58.7335 67.7191C57.3997 67.7485 56.4728 68.1149 55.837 69.5349C54.2121 73.1796 54.3788 78.0415 54.328 82.0199C54.2065 91.5441 52.9433 100.865 51.2986 110.18C50.4706 114.868 49.5776 119.541 48.7553 124.232C48.3681 126.473 47.9979 128.721 47.6588 130.975C47.5006 132.049 46.7009 134.414 47.4045 135.399C48.1082 136.384 50.2728 135.854 51.2421 135.86L57.9847 135.906L70.9047 135.991C79.2524 136.047 87.6284 136.318 95.9733 136.034C99.9578 135.896 104.168 135.706 108.048 134.604C109.204 134.277 109.761 133.662 109.806 132.235C109.874 130.023 109.563 127.743 109.523 125.521C109.241 106.512 113.098 87.7684 112.703 68.7529C112.677 67.4606 113.098 64.2019 111.877 63.42C111.329 63.0666 110.617 63.2596 110.041 63.3382C108.938 63.4854 107.839 63.6653 106.737 63.8158L92.4239 65.8836C87.8488 66.5379 83.2765 67.2446 78.6929 67.8467C73.8408 68.501 68.9407 68.8903 64.1056 67.8467C63.5715 67.7321 63.3426 68.6777 63.8795 68.7922L63.871 68.8315Z" fill="#0000FF"/>
<path d="M54.8734 80.3972L111.341 77.1908C111.886 77.1581 111.889 76.1766 111.341 76.2093L54.8734 79.4156C54.3308 79.4451 54.328 80.4266 54.8734 80.3972Z" fill="#0000FF"/>
<path d="M72.2696 72.3061C72.1117 72.4998 71.997 72.7353 71.9356 72.9921C71.8742 73.2488 71.8678 73.519 71.9171 73.7792C71.9664 74.0395 72.0699 74.2818 72.2185 74.4852C72.3671 74.6886 72.5563 74.8469 72.7698 74.9464C73.5299 75.3488 74.4229 75.0118 75.1774 74.7926C76.3078 74.4654 77.4382 74.1742 78.5996 73.9354C81.1275 73.4173 83.6879 73.1415 86.255 73.1109C87.4249 73.0946 88.5864 73.1567 89.7563 73.2156C90.604 73.2549 91.5168 73.3334 92.2346 72.7249C93.0541 72.0312 93.3197 70.6767 92.5172 69.8326C91.3868 68.6384 88.9509 69.332 87.6453 69.4564C82.9079 69.912 78.2013 70.7251 73.5554 71.8906C73.0241 72.0214 73.2474 72.9702 73.7815 72.8361C76.8466 72.0705 79.9353 71.4554 83.0476 70.9908C84.5773 70.7727 86.1099 70.5884 87.6453 70.4379C88.3688 70.3692 89.0922 70.307 89.8156 70.2579C90.0982 70.2383 90.3978 70.2023 90.686 70.2121C91.5818 70.235 91.6864 70.0485 91.1494 71.3016C90.6719 72.4108 90.8245 72.2832 89.9965 72.2472C89.6461 72.2472 89.2957 72.2014 88.9452 72.1817C88.2275 72.1468 87.5097 72.1283 86.7919 72.1261C85.264 72.1261 83.7399 72.2112 82.2196 72.3813C80.931 72.5253 79.6452 72.7281 78.3707 72.9899C77.5738 73.1535 76.7826 73.3432 75.9941 73.5526C75.6465 73.6475 75.2961 73.7456 74.9486 73.8471C74.7818 73.8994 74.6123 73.9452 74.4455 73.9943C73.8276 74.243 73.3011 73.9158 72.8659 73.0128C73.2445 72.558 72.6483 71.8611 72.2668 72.3192L72.2696 72.3061Z" fill="#0000FF"/>
<path d="M82.505 86.27C78.4159 86.0867 73.999 87.366 71.306 91.1776C69.1978 94.1582 67.9968 99.272 70.2293 102.629C72.6285 106.228 77.8903 105.593 81.0638 104.059C84.421 102.423 88.0946 99.0495 89.1035 94.8289C90.361 89.5581 86.2776 85.5731 82.0246 85.5142C81.4792 85.5142 81.4792 86.4957 82.0246 86.4957C84.4492 86.5284 86.8286 87.7325 87.959 90.3466C89.143 93.1014 88.1229 95.9937 86.546 98.1988C84.0197 101.709 80.0691 104.356 76.045 104.281C73.6289 104.239 70.9584 103.28 70.2095 100.329C69.5935 97.9371 70.0626 95.323 71.1364 93.2028C73.4593 88.6224 78.187 87.0716 82.522 87.2679C83.0674 87.2908 83.0674 86.3092 82.522 86.2863L82.505 86.27Z" fill="#0000FF"/>
<path d="M78.4442 93.5399C78.2699 93.4651 78.082 93.4425 77.8981 93.4744C77.7143 93.5063 77.5403 93.5915 77.3925 93.7221C77.2448 93.8527 77.1279 94.0245 77.0529 94.2214C76.9779 94.4184 76.9471 94.6341 76.9634 94.8486C77.0482 96.1246 78.2633 96.4845 79.1761 96.4092C79.9645 96.3307 80.8858 95.9937 80.6088 94.8518C80.5579 94.6497 80.4699 94.4627 80.3509 94.3035C80.232 94.1443 80.0847 94.0166 79.9193 93.9292C79.6665 93.813 79.3921 93.7736 79.1224 93.8147C79.0179 93.8147 78.0599 94.2204 78.4668 93.7329L77.7999 93.6315C77.8739 93.716 77.9306 93.8186 77.9658 93.9319C78.001 94.0451 78.0139 94.1661 78.0034 94.2858C78.0046 94.3713 78.0251 94.455 78.0627 94.5286C78.1002 94.6023 78.1537 94.6633 78.2178 94.7059C78.2819 94.7484 78.3544 94.771 78.4283 94.7713C78.5021 94.7717 78.5748 94.7498 78.6392 94.7079C78.7362 94.6609 78.8425 94.6461 78.9463 94.6653C79.0501 94.6844 79.1472 94.7367 79.2268 94.8162C79.3064 94.8957 79.3652 94.9994 79.3967 95.1155C79.4281 95.2316 79.431 95.3556 79.405 95.4735C79.3822 95.5868 79.3948 95.7058 79.4404 95.8095C79.486 95.9132 79.5617 95.9949 79.6543 96.0403C79.7468 96.0857 79.8502 96.0918 79.9463 96.0575C80.0423 96.0232 80.1249 95.9508 80.1793 95.853C80.4619 95.2641 80.8038 94.0928 80.3799 93.4777C80.0974 93.0622 79.552 93.1865 79.2129 93.4286C79.0036 93.6001 78.8087 93.794 78.6307 94.0077C78.2888 94.3578 78.0655 94.5214 78.1927 93.8507C78.4046 92.6303 79.4107 91.6586 80.3291 91.1711L79.7074 90.6182C79.3814 92.0363 78.7987 93.3579 77.9977 94.4952L78.7211 94.842C78.7006 94.3928 78.8003 93.9471 79.0067 93.5659C79.213 93.1847 79.516 92.8866 79.8741 92.7121H79.4587L79.6791 93.1309C79.5972 93.7492 80.4139 94.0143 80.4958 93.3894C80.6032 92.5812 80.1624 91.531 79.3457 91.9269C78.3707 92.398 77.8649 93.6904 77.8847 94.842C77.8847 95.2346 78.3651 95.5389 78.6109 95.1921C79.5096 93.928 80.1657 92.4569 80.5354 90.8766C80.555 90.7829 80.5507 90.6845 80.5229 90.5936C80.4951 90.5026 80.4451 90.423 80.3789 90.3644C80.3127 90.3057 80.2332 90.2707 80.1501 90.2635C80.067 90.2563 79.9839 90.2772 79.9108 90.3237C79.0643 90.7667 78.3489 91.4881 77.8536 92.398C77.5088 93.0524 77.0765 94.0731 77.4269 94.8257C77.4843 94.9461 77.5618 95.0521 77.6549 95.1376C77.7479 95.2231 77.8547 95.2864 77.969 95.3238C78.0833 95.3612 78.2029 95.372 78.3208 95.3556C78.4388 95.3392 78.5528 95.2958 78.6561 95.2281C78.9174 95.0487 79.1561 94.8285 79.3655 94.5737C79.47 94.4658 79.5859 94.2793 79.7243 94.2466C79.8487 94.1484 79.843 94.204 79.7046 94.42C79.7027 94.759 79.6174 95.0904 79.4587 95.3753L80.233 95.7516C80.3028 95.4461 80.2946 95.1237 80.2095 94.8235C80.1245 94.5232 79.9661 94.258 79.7536 94.0597C79.5411 93.8614 79.2836 93.7386 79.0121 93.7062C78.7406 93.6737 78.4668 93.733 78.2238 93.8768L78.8624 94.3022C78.8758 93.8858 78.7628 93.4772 78.5431 93.1472C78.5098 93.0836 78.4645 93.0295 78.4107 92.9888C78.3568 92.9481 78.2958 92.9219 78.2321 92.9122C78.1683 92.9025 78.1035 92.9094 78.0424 92.9325C77.9813 92.9557 77.9255 92.9944 77.879 93.0458C77.4495 93.566 77.3675 94.4658 77.9073 94.9467C78.3114 95.3033 78.5092 94.9467 78.9529 94.8649C80.4591 94.6392 79.5802 95.4244 79.0489 95.4506C78.8114 95.4801 78.5712 95.4601 78.3396 95.3917C77.75 95.1605 77.7132 94.8627 78.2294 94.4985C78.7353 94.7373 78.9529 93.7885 78.4555 93.5529L78.4442 93.5399Z" fill="#0000FF"/>
<path d="M77.7631 95.3328C78.1107 96.6415 76.6752 97.0733 75.9941 97.5249C75.5162 97.8352 75.0995 98.2575 74.7705 98.7649C74.0584 99.8707 73.7927 101.278 73.5582 102.603C73.4508 103.221 74.2675 103.483 74.3777 102.864C74.507 101.891 74.7474 100.941 75.0927 100.041C75.6013 98.8695 76.3304 98.4769 77.2799 97.8749C78.2294 97.2729 78.9161 96.3405 78.5798 95.071C78.4216 94.469 77.6021 94.7275 77.7631 95.3328Z" fill="#0000FF"/>
<path d="M79.1761 94.6751C78.9739 94.7075 78.7895 94.8261 78.6588 95.0076C78.5281 95.1891 78.4607 95.4206 78.4696 95.6567C78.4696 96.046 78.6929 96.2947 78.8455 96.6055C79.2077 97.2414 79.4841 97.9376 79.665 98.67C79.8006 99.3734 79.9335 100.633 79.617 101.287C79.032 102.501 77.9751 102.269 77.0736 102.269C76.2259 102.269 75.5702 102.596 75.5985 101.228C75.6155 100.46 76.0789 99.681 76.4463 99.0757L75.672 98.9579C75.8353 99.9569 75.9214 100.971 75.9291 101.988C75.9291 102.442 76.5311 102.694 76.7176 102.233C77.1719 101.126 77.5325 99.9716 77.7942 98.7845L76.9606 98.6536L77.1075 101.14C77.11 101.246 77.1419 101.349 77.1985 101.432C77.2551 101.516 77.3335 101.576 77.422 101.604C77.5104 101.632 77.6043 101.626 77.6897 101.587C77.775 101.548 77.8474 101.479 77.896 101.389C77.995 101.262 78.0675 101.111 78.1079 100.947C78.1362 100.793 77.8762 99.7562 77.7716 100.126L78.6025 100.257L78.6618 97.8946L77.814 98.0254C77.9932 98.6916 78.0472 99.3944 77.9723 100.087C77.9186 100.633 78.7127 100.757 78.82 100.218L79.3513 97.0439L78.577 97.1584C78.761 97.5974 78.8118 98.0953 78.7211 98.5718C78.659 99.2 79.5067 99.1935 79.5689 98.5718C79.6409 97.9203 79.5507 97.2586 79.3089 96.6644C79.266 96.5825 79.2034 96.5168 79.1287 96.4754C79.0541 96.4339 78.9707 96.4185 78.8886 96.431C78.8066 96.4435 78.7294 96.4833 78.6665 96.5457C78.6037 96.608 78.5579 96.6902 78.5346 96.7822L78.0005 99.9558L78.8342 100.087C78.919 99.3067 78.8543 98.5147 78.6448 97.767C78.6165 97.6543 78.5543 97.5571 78.4694 97.493C78.3845 97.4289 78.2826 97.4021 78.1821 97.4176C78.0816 97.433 77.9892 97.4896 77.9217 97.5771C77.8542 97.6646 77.816 97.7772 77.814 97.8946L77.7547 100.257C77.7547 100.829 78.4414 100.911 78.5883 100.388L78.6335 100.227C78.6531 100.144 78.6535 100.056 78.6346 99.972C78.6158 99.8882 78.5784 99.8116 78.5262 99.7497C77.6473 98.6438 77.4693 100.404 77.1641 100.892L77.9553 101.14L77.8084 98.6536C77.7773 98.1236 77.0991 97.96 76.9747 98.5227C76.7359 99.6294 76.4046 100.707 75.9857 101.739L76.7769 101.988C76.7678 100.883 76.6732 99.7813 76.4943 98.6961C76.4209 98.2446 75.9094 98.2643 75.72 98.5784C75.1548 99.5206 74.1771 101.579 74.9316 102.707C75.59 103.689 77.6614 103.309 78.5459 103.247C79.9419 103.156 80.4478 102.132 80.6004 100.607C80.6731 99.8768 80.6377 99.1377 80.4958 98.4213C80.4195 98.0353 79.648 95.588 79.4163 95.637C79.9532 95.5225 79.7243 94.5737 79.1902 94.6882L79.1761 94.6751Z" fill="#0000FF"/>
<path d="M77.5343 96.8803L75.2198 100.417L75.9517 100.911L77.6473 98.0712L76.873 97.6917L76.028 101.425C76.0053 101.538 76.0178 101.657 76.0634 101.761C76.109 101.865 76.1848 101.946 76.2773 101.992C76.3699 102.037 76.4733 102.043 76.5693 102.009C76.6654 101.975 76.7479 101.902 76.8023 101.804C77.1868 101.067 77.6185 100.364 78.0938 99.7006L77.3873 99.2229C77.1976 100.068 76.8318 100.847 76.3219 101.49L77.0312 101.968C77.0747 101.516 77.1786 101.074 77.3393 100.659C77.5569 100.093 76.8673 99.5926 76.6074 100.162C76.3683 100.68 76.0952 101.177 75.7907 101.647L76.565 101.765L76.7373 100.833L75.9631 100.715L76.0874 101.533C76.1078 101.615 76.1463 101.69 76.1992 101.75C76.2521 101.81 76.3175 101.852 76.389 101.874C76.4605 101.896 76.5357 101.896 76.6072 101.874C76.6787 101.852 76.744 101.809 76.7967 101.749C77.5134 100.89 78.0881 99.8864 78.4922 98.7878H77.7632C77.9548 99.1969 78.0893 99.6386 78.1616 100.096C78.2633 100.685 78.9387 100.466 78.9924 99.9656C79.1138 98.8697 79.1761 97.766 79.1789 96.6611H78.3312V98.7191C78.3312 99.2524 79.0857 99.4094 79.1648 98.8499C79.2208 98.3536 79.362 97.8752 79.5802 97.4431H78.837C79.0161 97.7776 79.1138 98.1619 79.1196 98.5555C79.1196 98.6856 79.1643 98.8104 79.2437 98.9025C79.3232 98.9945 79.4311 99.0462 79.5435 99.0462C79.6559 99.0462 79.7637 98.9945 79.8432 98.9025C79.9227 98.8104 79.9674 98.6856 79.9674 98.5555L80.0747 97.9011H79.2581C79.34 98.4802 79.6509 101.742 78.5459 101.359C78.3594 101.307 78.3057 101.32 78.3849 101.395L78.6364 100.774L79.227 99.3243L78.4357 99.0757C78.4866 99.7497 78.5403 100.712 78.1899 101.287C77.9073 101.755 77.0369 101.942 76.5932 101.667C76.3003 101.425 76.05 101.121 75.8557 100.77L75.2764 101.425C75.7455 101.821 76.5056 102.792 77.1104 102.848C77.571 102.891 77.9581 102.449 78.2605 102.096C78.7243 101.541 79.086 100.882 79.3235 100.161C79.561 99.4393 79.6695 98.6694 79.6424 97.8978C79.6424 97.7677 79.5977 97.6428 79.5182 97.5508C79.4387 97.4588 79.3309 97.4071 79.2185 97.4071C79.1061 97.4071 78.9983 97.4588 78.9188 97.5508C78.8393 97.6428 78.7946 97.7677 78.7946 97.8978V99.0168C78.7946 99.1469 78.8393 99.2718 78.9188 99.3638C78.9983 99.4558 79.1061 99.5076 79.2185 99.5076C79.3309 99.5076 79.4387 99.4558 79.5182 99.3638C79.5977 99.2718 79.6424 99.1469 79.6424 99.0168V96.2718C79.6424 96.1416 79.5977 96.0168 79.5182 95.9247C79.4387 95.8327 79.3309 95.781 79.2185 95.781C79.1061 95.781 78.9983 95.8327 78.9188 95.9247C78.8393 96.0168 78.7946 96.1416 78.7946 96.2718C78.7931 96.9297 78.7439 97.5864 78.6477 98.2348L79.4813 98.3657C79.4149 97.584 79.3838 96.7988 79.3881 96.0133C79.3867 95.8957 79.349 95.7826 79.2817 95.6945C79.2144 95.6064 79.122 95.5493 79.0213 95.5334C78.9207 95.5176 78.8185 95.5441 78.7333 95.6081C78.6481 95.6722 78.5856 95.7695 78.5572 95.8824C78.4301 96.5073 78.2746 97.1224 78.1249 97.7342L78.8992 97.6165L78.8398 97.3547C78.8003 96.7298 77.9525 96.7265 77.9921 97.3547C78.0014 97.6196 78.0612 97.8788 78.1673 98.1138C78.3312 98.5129 78.8427 98.3722 78.9416 97.996C79.1026 97.3809 79.2468 96.7658 79.3739 96.1442L78.5403 96.0133C78.536 96.7988 78.5672 97.584 78.6335 98.3657C78.6759 98.8696 79.3767 99.0855 79.4644 98.4966C79.5772 97.7576 79.6368 97.0091 79.6424 96.2587H78.7946V99.0037H79.6424V97.8847H78.7946C78.8445 99.119 78.4741 100.327 77.7632 101.248C77.653 101.393 77.534 101.529 77.4071 101.654C77.2064 101.876 77.0228 101.844 76.8617 101.552C76.4604 101.359 76.045 100.862 75.6946 100.571C75.3442 100.28 74.8638 100.856 75.1125 101.242C75.7624 102.243 76.7317 103.358 77.9384 102.877C79.2072 102.357 79.3796 100.368 79.2835 99.0593C79.2524 98.6242 78.6901 98.3297 78.4951 98.8139C78.2125 99.5043 77.9299 100.191 77.6473 100.885C77.5484 101.127 77.3647 101.461 77.393 101.749C77.4862 102.485 78.2577 102.364 78.7324 102.321C80.5721 102.161 80.281 99.1411 80.0691 97.623C79.9985 97.1192 79.3654 97.1977 79.2524 97.623C79.1626 97.9219 79.1158 98.2358 79.1139 98.5522H79.9617C79.931 97.9896 79.795 97.4415 79.5633 96.9458C79.5254 96.8726 79.4717 96.812 79.4076 96.77C79.3435 96.7279 79.271 96.7058 79.1973 96.7058C79.1236 96.7058 79.0512 96.7279 78.987 96.77C78.9229 96.812 78.8693 96.8726 78.8314 96.9458C78.5786 97.4508 78.4082 98.0053 78.3283 98.5816L79.1761 98.7125V96.6546C79.1761 96.5244 79.1315 96.3996 79.052 96.3075C78.9725 96.2155 78.8646 96.1638 78.7522 96.1638C78.6398 96.1638 78.532 96.2155 78.4525 96.3075C78.373 96.3996 78.3283 96.5244 78.3283 96.6546C78.3255 97.7595 78.2632 98.8631 78.1418 99.9591L78.9755 99.8282C78.8796 99.2933 78.7168 98.7775 78.4922 98.297C78.4543 98.2238 78.4007 98.1632 78.3366 98.1212C78.2724 98.0791 78.2 98.057 78.1263 98.057C78.0526 98.057 77.9801 98.0791 77.916 98.1212C77.8519 98.1632 77.7982 98.2238 77.7603 98.297C77.3918 99.3217 76.8619 100.258 76.1976 101.058L76.9069 101.274L76.7826 100.456C76.7176 100.021 76.1863 100.008 76.0083 100.339C75.8678 100.585 75.7725 100.861 75.7283 101.152C75.6841 101.442 75.6918 101.74 75.7511 102.027C75.8218 102.491 76.3304 102.442 76.5254 102.145C76.8299 101.675 77.103 101.18 77.3421 100.662L76.6102 100.165C76.4148 100.654 76.2815 101.173 76.2146 101.706C76.1637 102.138 76.6074 102.59 76.9239 102.184C77.5314 101.414 77.9712 100.488 78.2068 99.4814C78.3114 99.0364 77.7801 98.6144 77.4975 99.0037C76.9776 99.725 76.5053 100.491 76.0846 101.294L76.8589 101.673L77.7208 97.9535C77.7435 97.8401 77.731 97.7211 77.6854 97.6174C77.6398 97.5137 77.5641 97.432 77.4715 97.3866C77.3789 97.3413 77.2755 97.3352 77.1795 97.3694C77.0834 97.4037 77.0009 97.4761 76.9465 97.5739L75.2509 100.417C74.9344 100.944 75.6607 101.399 75.9828 100.911L78.2888 97.3776C78.6166 96.8738 77.8818 96.3961 77.5569 96.8803H77.5343Z" fill="#0000FF"/>
<path d="M113.587 108.688C116.978 106.287 119.674 102.704 122.67 99.7071C125.919 96.4583 129.33 93.4319 132.843 90.5658C139.665 85.0038 146.828 80.0274 153.986 75.0642C154.079 74.9962 154.145 74.8893 154.171 74.7658C154.197 74.6424 154.181 74.512 154.126 74.4022C154.07 74.2925 153.981 74.2118 153.875 74.1772C153.769 74.1426 153.656 74.1568 153.559 74.2168C146.401 79.1801 139.235 84.1466 132.413 89.7184C129.195 92.3358 126.052 95.1103 123.04 98.0549C119.762 101.261 116.843 105.253 113.149 107.841C112.683 108.168 113.11 109.019 113.576 108.688H113.587Z" fill="#0000FF"/>
<path d="M164.931 59.8243C161.257 60.2561 157.301 61.3391 155.04 65.0591C153.088 68.2589 153.13 73.8405 154.964 77.1254C157.047 80.8585 161.302 80.9926 164.609 79.7853C167.915 78.578 171.337 76.4612 171.306 71.8873C171.289 69.4335 170.523 66.8782 169.678 64.6534C168.949 62.7329 167.658 61.0545 165.702 61.2671C165.163 61.326 165.157 62.3075 165.702 62.2487C168.322 61.9673 169.164 65.5695 169.786 67.8434C170.351 69.9667 170.874 72.4795 169.986 74.5898C169.099 76.7001 166.96 77.7765 165.132 78.5486C163.153 79.3796 160.98 79.8867 158.915 79.2029C154.823 77.8779 153.692 71.8742 154.871 67.6144C156.227 62.7067 161.031 61.2639 164.945 60.8058C165.482 60.7436 165.488 59.7621 164.945 59.8243H164.931Z" fill="#0000FF"/>
<path d="M170.583 97.7768C166.909 98.2087 162.953 99.2916 160.692 103.012C158.739 106.211 158.782 111.793 160.616 115.078C162.698 118.811 166.954 118.945 170.261 117.738C173.567 116.531 176.989 114.414 176.958 109.84C176.941 107.386 176.175 104.831 175.33 102.606C174.601 100.685 173.31 99.007 171.354 99.2196C170.814 99.2785 170.809 100.26 171.354 100.201C173.974 99.9198 174.816 103.522 175.438 105.796C176.003 107.919 176.526 110.432 175.638 112.542C174.751 114.653 172.612 115.729 170.783 116.501C168.805 117.332 166.632 117.839 164.566 117.155C160.474 115.83 159.344 109.827 160.522 105.567C161.879 100.659 166.683 99.2164 170.597 98.7583C171.134 98.6962 171.139 97.7146 170.597 97.7768H170.583Z" fill="#0000FF"/>
<path d="M159.389 69.3811L162.065 72.9146C162.118 72.9738 162.184 73.0161 162.255 73.0375C162.326 73.0588 162.401 73.0584 162.472 73.0363C162.543 73.0143 162.608 72.9713 162.661 72.9115C162.713 72.8518 162.752 72.7773 162.772 72.6954C163.337 70.9745 163.23 69.1913 163.363 67.3821C163.509 65.512 163.914 63.6815 164.564 61.9607C165.867 58.4705 168.078 55.5373 170.888 53.5686C171.354 53.2415 170.927 52.3908 170.461 52.7213C167.69 54.653 165.468 57.48 164.066 60.8549C163.38 62.4971 162.904 64.2462 162.653 66.0472C162.371 68.1706 162.628 70.3954 161.95 72.4337L162.659 72.2145L159.997 68.6875C159.635 68.2131 159.039 68.91 159.398 69.3811H159.389Z" fill="#0000FF"/>
<path d="M114.952 112.513C129.528 111.998 144.108 111.889 158.691 112.186C159.237 112.186 159.237 111.204 158.691 111.204C144.112 110.903 129.532 111.012 114.952 111.531C114.407 111.551 114.404 112.532 114.952 112.513Z" fill="#0000FF"/>
<path d="M161.738 102.835C166.72 105.099 171.513 107.887 176.056 111.165C176.52 111.492 176.947 110.651 176.483 110.317C171.88 107 167.024 104.178 161.975 101.889C161.469 101.657 161.249 102.606 161.752 102.835H161.738Z" fill="#0000FF"/>
<path d="M170.786 98.3886C165.733 105.208 162.806 113.796 162.475 122.773C162.453 123.405 163.3 123.405 163.323 122.773C163.644 114.054 166.483 105.712 171.385 99.0822C171.739 98.6045 171.142 97.9077 170.786 98.3886Z" fill="#0000FF"/>
<path d="M57.7643 108.95L89.3494 108.472L92.9806 108.417C93.6334 108.417 94.2862 108.39 94.939 108.387C95.8574 108.387 96.4763 109.271 96.4593 110.35C96.4169 112.64 95.1735 112.559 93.5458 112.64L89.6206 112.847L73.6373 113.661C70.7747 113.808 67.9092 113.988 65.0466 114.103C62.4637 114.195 57.5523 113.22 58.6996 108.868C58.8579 108.263 58.0412 108.004 57.8801 108.606C57.3149 110.746 58.3153 112.919 59.9261 114.041C62.2122 115.631 65.2246 115.091 67.7482 114.96L87.3712 113.93L92.1357 113.684C93.3565 113.619 95.0548 113.907 96.1767 113.249C97.4936 112.48 97.7253 109.428 96.8945 108.142C96.4678 107.487 95.8687 107.429 95.199 107.399C93.4413 107.321 91.6525 107.455 89.8919 107.481L80.1087 107.631L57.753 107.959C57.2076 107.959 57.2076 108.94 57.753 108.94L57.7643 108.95Z" fill="#0000FF"/>
<path d="M185.376 229.187C184.664 229.704 183.85 229.995 183.116 230.45C182.381 230.905 181.666 231.589 181.457 232.531C181.379 232.824 181.392 233.138 181.494 233.421C181.676 233.762 181.956 234.019 182.285 234.147C183.777 234.915 185.39 235.322 187.023 235.343C188.656 235.364 190.275 235 191.783 234.272C192.313 233.977 192.861 233.725 193.422 233.519C194.113 233.356 194.816 233.273 195.521 233.271C196.263 233.22 197 233.111 197.728 232.943C198.094 232.896 198.441 232.729 198.729 232.462C198.991 232.113 199.148 231.674 199.178 231.213C199.512 228.664 199.008 226.062 197.765 223.923C197.608 223.623 197.398 223.366 197.149 223.167C196.845 222.985 196.51 222.882 196.168 222.863C194.755 222.663 193.275 222.297 191.848 222.258C190.825 222.232 190.31 222.794 189.587 223.609C188.092 225.34 187.219 227.856 185.376 229.187Z" fill="#323444"/>
<path d="M206.2 228.945C206.2 230.548 206.367 232.246 207.206 233.526C207.59 234.079 208.055 234.55 208.58 234.916C210.354 236.225 212.706 236.706 214.576 235.597C214.879 235.44 215.137 235.188 215.322 234.87C215.605 234.301 215.455 233.591 215.297 232.963L212.59 222.101C210.84 222.411 208.269 222.631 206.715 223.658C205.587 224.401 206.2 227.512 206.2 228.945Z" fill="#323444"/>
<path d="M183.788 162.06C183.624 162.659 183.031 162.937 182.706 163.441C182.324 164.033 182.364 164.855 182.502 165.574C182.673 166.636 183.104 167.618 183.743 168.404C184.067 168.794 184.467 169.088 184.91 169.262C185.352 169.436 185.824 169.486 186.286 169.406C187.196 169.206 187.982 168.274 188.013 167.204C187.996 166.717 187.907 166.238 187.747 165.787L185.82 159.335C185.812 159.289 185.796 159.246 185.773 159.209C185.749 159.171 185.719 159.139 185.684 159.116C185.612 159.097 185.535 159.112 185.472 159.158C185.017 159.407 184.105 159.669 183.839 160.215C183.573 160.762 183.98 161.468 183.788 162.06Z" fill="#FBB3B2"/>
<path d="M182.887 161.737C183.59 161.609 184.206 161.131 184.865 160.817C185.523 160.503 186.348 160.382 186.902 160.906C187.061 161.056 187.213 161.262 187.419 161.259C187.139 159.659 186.714 158.098 186.153 156.6C186.134 156.528 186.095 156.465 186.043 156.42C185.966 156.384 185.88 156.384 185.803 156.42L183.901 156.996C183.198 157.208 183.116 157.143 183.169 157.945C183.183 158.301 183.342 161.737 182.887 161.737Z" fill="#323444"/>
<path d="M182.678 115.147C182.395 115.65 182.395 116.279 182.395 116.871C182.395 119.766 182.42 122.678 182.791 125.544C182.878 126.231 182.988 126.918 183.045 127.612C183.109 128.578 183.122 129.547 183.085 130.514L182.802 143.11C182.768 144.651 182.7 146.307 181.878 147.517C181.629 147.923 181.511 148.418 181.547 148.915C181.762 152.075 182.214 155.209 182.663 158.334C183.387 157.956 184.177 157.782 184.97 157.826C185.763 157.87 186.535 158.13 187.224 158.586C188.65 153.395 189.439 147.999 189.567 142.554C189.632 139.875 189.533 137.179 189.889 134.532C190.486 130.076 190.243 125.505 189.805 121.023C189.666 119.603 189.372 118.14 188.587 117.041C187.843 116.079 186.852 115.419 185.761 115.156C184.715 114.839 183.78 115.166 182.678 115.147Z" fill="#5B5583"/>
<path opacity="0.1" d="M182.678 115.147C182.395 115.65 182.395 116.279 182.395 116.871C182.395 119.766 182.42 122.678 182.791 125.544C182.878 126.231 182.988 126.918 183.045 127.612C183.109 128.578 183.122 129.547 183.085 130.514L182.802 143.11C182.768 144.651 182.7 146.307 181.878 147.517C181.629 147.923 181.511 148.418 181.547 148.915C181.762 152.075 182.214 155.209 182.663 158.334C183.387 157.956 184.177 157.782 184.97 157.826C185.763 157.87 186.535 158.13 187.224 158.586C188.65 153.395 189.439 147.999 189.567 142.554C189.632 139.875 189.533 137.179 189.889 134.532C190.486 130.076 190.243 125.505 189.805 121.023C189.666 119.603 189.372 118.14 188.587 117.041C187.843 116.079 186.852 115.419 185.761 115.156C184.715 114.839 183.78 115.166 182.678 115.147Z" fill="black"/>
<path d="M186.131 151.676C184.236 162.921 185.27 174.564 189.104 185.126C189.435 185.908 189.667 186.741 189.793 187.6C189.949 189.203 189.31 190.744 188.945 192.295C188.098 195.822 188.587 199.578 189.129 203.187C189.355 204.692 189.588 206.196 189.827 207.698C190.062 209.164 190.288 210.757 189.7 212.086C190.206 214.527 190.505 216.944 191.011 219.385C191.065 219.578 191.081 219.783 191.059 219.984C190.957 220.303 190.778 220.582 190.542 220.785C190.165 221.228 189.894 221.777 189.756 222.377C189.618 222.978 189.617 223.61 189.754 224.211C191.045 223.138 192.845 223.514 194.32 224.211C195.795 224.908 197.248 225.847 198.842 225.847C198.61 223.681 198.387 221.407 199.076 219.375C199.478 218.197 200.184 217.085 200.164 215.825C200.144 214.697 199.548 213.689 199.404 212.573C199.35 211.879 199.373 211.18 199.472 210.492C199.851 206.488 199.421 202.444 198.991 198.446C198.943 197.657 198.783 196.884 198.517 196.156C198.316 195.684 198.017 195.233 198.022 194.706C198.022 194.094 198.449 193.597 198.607 193.015C198.89 191.942 198.37 190.482 199.153 189.818C201.215 188.064 200.424 183.877 200.379 180.916C200.343 178.361 200.249 175.81 200.096 173.26C201.395 177.488 201.926 181.981 201.656 186.458C201.566 187.924 201.399 189.465 201.894 190.819C202.272 191.86 203.024 192.717 203.227 193.82C203.355 194.5 203.264 195.203 203.292 195.897C203.321 196.591 203.524 197.346 204.041 197.697C204.081 200.851 204.324 204.224 204.366 207.378C204.339 208.99 204.452 210.601 204.705 212.187C204.832 212.692 204.903 213.213 204.915 213.738C204.851 214.397 204.7 215.04 204.468 215.645C203.976 217.334 203.847 219.136 204.093 220.895C204.339 222.654 204.953 224.317 205.881 225.739C206.548 224.368 207.938 223.642 209.295 223.527C210.651 223.413 211.991 223.809 213.305 224.208C213.104 222.296 213.432 220.36 214.243 218.678C214.46 218.299 214.627 217.885 214.737 217.448C214.89 216.617 214.534 215.789 214.342 214.968C214.028 213.659 214.138 212.249 214.212 210.882C214.458 206.301 214.283 201.704 213.689 197.167C213.597 196.273 213.416 195.394 213.149 194.549C213.048 194.248 212.923 193.96 212.838 193.656C212.705 193.11 212.629 192.548 212.612 191.981L212.287 186.746C212.058 183.078 213.098 179.456 213.825 175.877C214.15 174.274 214.503 172.674 214.72 171.045C215.017 168.826 215.065 166.559 215.5 164.37C215.89 162.407 216.594 160.493 216.741 158.481C216.967 155.363 215.848 152.35 214.763 149.49C214.311 148.312 212.601 148.43 211.502 148.221C203.705 146.739 195.493 146.729 188.14 150.069C187.38 150.434 186.695 150.982 186.131 151.676Z" fill="#3C354C"/>
<path d="M191.752 93.6053L192.616 97.4987C192.851 98.3916 192.982 99.3171 193.003 100.25C193.012 100.591 192.947 100.928 192.814 101.232C192.672 101.481 192.489 101.697 192.277 101.866C191.687 102.387 191.277 103.601 190.601 103.96C190.949 104.661 191.429 104.206 192.057 104.556C193.162 105.178 194.173 106.071 195.371 106.378C196.502 106.666 197.689 106.395 198.811 106.051C200.402 105.551 201.984 104.86 203.264 103.653C204.544 102.446 205.273 101.379 205.268 99.4716C203.855 99.6646 202.597 98.0123 201.973 96.527C201.756 95.9623 201.597 95.3706 201.498 94.7635L200.741 90.9061C199.916 91.1155 199.243 91.7993 198.455 92.1559C197.666 92.5125 196.734 92.5452 195.858 92.591C194.303 92.6729 192.756 92.9049 191.234 93.2846C191.025 93.3337 190.762 93.4875 190.813 93.7231" fill="#FBB3B2"/>
<path opacity="0.1" d="M191.752 93.6053L192.616 97.4987C192.851 98.3916 192.982 99.3171 193.003 100.25C193.012 100.591 192.947 100.928 192.814 101.232C192.672 101.481 192.489 101.697 192.277 101.866C191.687 102.387 191.277 103.601 190.601 103.96C190.949 104.661 191.429 104.206 192.057 104.556C193.162 105.178 194.173 106.071 195.371 106.378C196.502 106.666 197.689 106.395 198.811 106.051C200.402 105.551 201.984 104.86 203.264 103.653C204.544 102.446 205.273 101.379 205.268 99.4716C203.855 99.6646 202.597 98.0123 201.973 96.527C201.756 95.9623 201.597 95.3706 201.498 94.7635L200.741 90.9061C199.916 91.1155 199.243 91.7993 198.455 92.1559C197.666 92.5125 196.734 92.5452 195.858 92.591C194.303 92.6729 192.756 92.9049 191.234 93.2846C191.025 93.3337 190.762 93.4875 190.813 93.7231" fill="black"/>
<path d="M195.465 95.7515C199.598 95.7515 202.948 91.8727 202.948 87.0879C202.948 82.3031 199.598 78.4243 195.465 78.4243C191.332 78.4243 187.982 82.3031 187.982 87.0879C187.982 91.8727 191.332 95.7515 195.465 95.7515Z" fill="#FBB3B2"/>
<path d="M197.525 101.369C197.925 100.369 198.503 99.4767 199.22 98.7518C200.274 97.6819 201.716 96.8149 201.964 95.2183L204.248 98.297C204.372 98.4398 204.468 98.6115 204.53 98.8009C204.559 98.9784 204.555 99.161 204.518 99.3364C204.481 99.5119 204.412 99.6762 204.316 99.8184C203.75 100.862 202.86 101.608 202.018 102.364C200.088 104.134 198.24 106.021 196.482 108.017C196.405 108.122 196.301 108.195 196.185 108.227C196.076 108.23 195.969 108.195 195.877 108.125C194.361 107.203 193.018 105.94 191.93 104.409C191.848 104.294 191.746 104.163 191.613 104.173C191.533 104.19 191.459 104.235 191.401 104.301C190.641 105.02 189.81 105.881 188.835 105.77C190.098 104.719 190.813 102.966 191.079 101.189C191.131 100.581 191.239 99.9813 191.401 99.3996C191.485 99.1086 191.629 98.8459 191.821 98.6347C192.014 98.4236 192.248 98.2705 192.503 98.189C191.887 99.2785 192.308 100.823 193.136 101.703C193.941 102.493 194.905 103.035 195.94 103.277C196.9 103.486 197.183 102.226 197.525 101.369Z" fill="#323444"/>
<path d="M187.79 152.566C188.855 152.87 189.864 153.387 190.898 153.77C192.783 154.453 194.767 154.695 196.734 154.48C197.339 154.464 197.928 154.247 198.429 153.855C198.562 153.731 198.683 153.583 198.825 153.469C199.061 153.305 199.317 153.182 199.585 153.106C202.176 152.167 204.347 150.141 206.452 148.159C206.52 148.093 206.596 148.012 206.59 147.907C206.581 147.836 206.551 147.77 206.506 147.72L205.398 146.248C202.493 146.821 199.517 146.605 196.57 146.52C195.965 146.488 195.358 146.507 194.755 146.575C194.173 146.654 193.6 146.824 193.026 146.968C190.847 147.517 188.62 147.727 186.413 148.087C186.259 148.1 186.109 148.154 185.975 148.244C185.882 148.327 185.803 148.429 185.741 148.545L184.967 149.804C184.666 150.228 184.445 150.719 184.317 151.247C184.136 152.229 184.514 152.556 185.235 152.428C186.086 152.284 186.954 152.331 187.79 152.566Z" fill="#323444"/>
<path d="M196.451 106.519C195.586 105.493 194.606 104.607 193.537 103.885C193.106 103.568 192.626 103.346 192.125 103.231C191.872 103.173 191.612 103.18 191.362 103.251C191.112 103.323 190.878 103.456 190.678 103.643C190.426 103.902 190.268 104.261 190.025 104.533C189.719 104.83 189.368 105.06 188.991 105.21C187.704 105.847 186.485 106.651 185.356 107.608C184.741 108.107 184.187 108.699 183.709 109.369C182.429 111.266 182.237 113.848 182.271 116.256C182.296 117.931 183.684 119.174 184.639 120.427C185.535 121.66 186.345 122.973 187.063 124.353C187.578 125.296 188.115 126.316 188.05 127.439C187.996 128.358 187.532 129.222 187.606 130.138C187.631 130.465 187.722 130.766 187.747 131.083C187.798 131.738 187.575 132.392 187.518 133.046C187.442 133.972 187.702 134.892 187.716 135.824C187.706 136.463 187.636 137.098 187.507 137.719C186.964 140.709 186.283 143.716 186.422 146.768L184.856 147.095C185.005 147.264 185.117 147.47 185.183 147.698C185.25 147.925 185.269 148.168 185.24 148.406C185.21 148.644 185.133 148.871 185.014 149.068C184.895 149.264 184.737 149.426 184.554 149.539C186.998 150.485 189.641 150.007 192.232 150.004C194.377 150.004 196.513 150.331 198.655 150.285C200.797 150.24 203.007 149.791 204.773 148.388C205.254 148.008 205.694 147.563 206.2 147.233C206.878 146.826 207.608 146.55 208.362 146.415C209.759 146.106 211.179 145.96 212.601 145.976C213.296 145.976 214.054 146.009 214.607 145.525C215.218 144.988 215.373 144.017 215.455 143.137C215.537 142.207 215.588 141.275 215.602 140.342C215.626 139.616 215.593 138.889 215.503 138.17C215.418 137.644 215.308 137.124 215.173 136.613L214.107 132.268C213.666 130.475 214.28 128.508 214.41 126.65C214.441 126.212 214.446 125.701 214.155 125.42C214.051 125.319 213.907 125.25 213.873 125.093C213.857 125.018 213.856 124.941 213.867 124.865C213.879 124.79 213.904 124.718 213.94 124.654C214.506 123.346 215.353 122.191 216.128 121.01C217.428 118.938 218.636 116.79 219.745 114.574C219.397 109.937 217.711 105.572 214.958 102.181C214.393 101.471 213.745 100.79 212.954 100.469C212.437 100.287 211.901 100.186 211.36 100.172C209.145 99.9983 206.839 99.8445 204.909 98.5555C204.77 98.4444 204.614 98.3675 204.448 98.3297C204.022 98.2741 203.711 98.7616 203.434 99.1477C202.722 100.129 201.673 100.692 200.752 101.415C199.034 102.766 197.692 104.625 196.451 106.519Z" fill="#5B5583"/>
<path d="M219.937 115.912C220.378 117.528 220.336 119.256 220.48 120.941C220.565 121.958 220.719 122.965 220.94 123.954C221.041 124.498 221.223 125.017 221.477 125.489C221.732 125.921 222.096 126.271 222.257 126.758C222.345 127.088 222.384 127.433 222.373 127.779L222.407 130.036C222.479 131.233 222.322 132.433 221.946 133.55L220.728 137.84C220.07 140.163 219.394 142.521 218.208 144.543C218.04 144.886 217.787 145.161 217.481 145.332C217.242 145.405 216.997 145.449 216.749 145.463C216.319 145.552 215.928 145.812 215.645 146.198C215.362 146.584 215.204 147.073 215.198 147.58C214.915 147.101 214.562 146.684 214.155 146.346L211.677 144.056C210.829 143.258 209.945 142.446 208.916 141.985C210.3 141.485 211.528 140.53 212.452 139.237C213.376 137.945 213.956 136.369 214.121 134.702C214.12 134.206 214.217 133.716 214.404 133.269C214.61 132.883 214.992 132.588 215.02 132.134C215.054 131.561 214.494 131.129 214.494 130.557C214.494 130.177 214.737 129.863 214.845 129.506C214.945 129.066 214.945 128.602 214.845 128.162L214.503 125.963C214.483 125.743 214.425 125.529 214.333 125.335C214.205 125.149 214.064 124.976 213.909 124.818C213.322 124.056 213.582 122.855 213.909 121.916C214.662 119.832 215.632 117.862 216.797 116.05C217.212 115.441 217.596 114.805 217.948 114.145C218.247 113.543 218.315 112.709 218.632 112.182C219.038 113.419 219.589 114.639 219.937 115.912Z" fill="#5B5583"/>
<path d="M208.828 142.119C208.702 142.227 208.593 142.36 208.506 142.512C208.173 142.996 207.73 143.362 207.226 143.568C207.509 143.804 207.766 144.036 208.032 144.275C209.997 146.033 211.797 148.025 213.401 150.22C213.579 149.484 214.644 149.536 214.904 148.833C214.965 148.631 214.985 148.416 214.961 148.205C214.907 147.102 214.771 146.008 214.554 144.933C214.468 144.379 214.275 143.856 213.989 143.402C213.593 142.849 212.977 142.584 212.389 142.355C211.499 141.995 209.733 141.488 208.828 142.119Z" fill="#323444"/>
<path d="M205.296 144.691C204.448 145.417 203.705 146.327 202.753 146.824C202.08 147.177 201.314 147.331 200.727 147.858C201.046 148.672 201.877 149.094 202.648 149.062C203.42 148.974 204.16 148.66 204.799 148.149C205.305 147.789 205.898 147.37 206.449 147.622C206.534 148.119 206.166 148.587 206.166 149.091C206.166 149.595 206.528 149.961 206.884 150.226C208.58 151.493 210.761 151.388 212.782 151.241C212.898 151.246 213.012 151.207 213.107 151.129C213.151 151.07 213.184 151.002 213.205 150.928C213.226 150.853 213.234 150.775 213.228 150.698C213.254 150.181 213.265 149.667 213.268 149.15C213.325 148.733 213.278 148.306 213.133 147.919C212.988 147.532 212.75 147.201 212.448 146.965C211.352 145.873 210.169 144.904 208.916 144.069C207.673 143.235 206.412 143.729 205.296 144.691Z" fill="#FBB3B2"/>
<path d="M198.093 83.4661C196.838 83.6395 195.925 84.7748 196.053 86.0082C196.18 87.2417 197.299 88.0923 198.553 87.9157C199.808 87.739 200.721 86.607 200.594 85.3768C200.467 84.1466 199.348 83.2927 198.093 83.4661ZM198.52 87.5754C197.457 87.7226 196.51 86.9996 196.4 85.9592C196.29 84.9187 197.067 83.9568 198.127 83.8096C199.186 83.6624 200.136 84.3854 200.246 85.4259C200.356 86.4663 199.579 87.4282 198.52 87.5754Z" fill="#3C354C"/>
<path d="M191.978 84.3167C190.723 84.4901 189.81 85.6254 189.937 86.8556C190.064 88.0858 191.184 88.9397 192.438 88.7663C193.693 88.5929 194.606 87.4576 194.479 86.2242C194.351 84.9907 193.232 84.1433 191.978 84.3167ZM192.404 88.4228C191.342 88.57 190.395 87.847 190.288 86.8098C190.18 85.7727 190.952 84.8075 192.014 84.657C193.077 84.5065 194.024 85.2328 194.131 86.2732C194.238 87.3137 193.464 88.2756 192.404 88.4228Z" fill="#3C354C"/>
<path d="M187.436 84.9482L190.163 85.6222L189.895 86.4532L187.323 85.5796L187.436 84.9482Z" fill="#3C354C"/>
<path d="M202.637 82.8346L200.122 84.2382L200.554 84.9711L202.874 83.417L202.637 82.8346Z" fill="#3C354C"/>
<path d="M194.227 85.4128L196.14 85.1478L196.041 85.6974L194.399 85.825L194.227 85.4128Z" fill="#3C354C"/>
<path d="M190.517 84.6701C190.697 84.2218 190.793 83.7346 190.799 83.2403C190.806 82.9445 190.85 82.6513 190.929 82.37C191.068 82.0128 191.279 81.6996 191.545 81.4572C192.427 80.5934 193.69 80.1485 194.936 80.0863C196.295 80.0139 197.647 80.3522 198.859 81.0679C199.229 81.2686 199.56 81.5535 199.834 81.9054C200.229 82.4649 200.314 83.188 200.712 83.7409C200.984 84.0764 201.327 84.325 201.706 84.4625C202.085 84.6001 202.488 84.622 202.877 84.5261C203.016 83.9568 202.835 83.3548 202.905 82.7724C203.017 82.2734 203.167 81.7872 203.355 81.3198C203.793 79.8246 203.154 78.0905 201.837 77.1974C201.377 76.8702 200.831 76.6575 200.486 76.2158C200.142 75.7741 200.06 75.3161 199.822 74.8744C199.192 73.7064 197.562 73.16 196.321 73.6998C195.931 73.87 195.586 74.1284 195.191 74.3117C194.456 74.6617 193.619 74.7239 192.811 74.8417C192.015 74.9269 191.236 75.1635 190.505 75.5418C189.807 75.941 189.222 76.5823 189.061 77.3479C188.985 77.7012 189.002 78.0676 188.926 78.4177C188.536 80.1943 186.018 81.058 185.876 82.8706C185.826 83.525 186.134 84.1531 186.518 84.6864C186.784 85.0496 187.419 86.0213 187.869 86.162C188.318 86.3027 188.66 85.8086 189.09 85.6385C189.768 85.3931 190.178 85.3408 190.517 84.6701Z" fill="#CBCEDA"/>
<path d="M222.396 199.905C222.396 216.342 231.303 229.645 242.31 229.645L222.396 199.905Z" fill="#46455B"/>
<path d="M242.31 229.649C242.31 213.025 252.251 199.575 264.535 199.575L242.31 229.649Z" fill="#0000FF"/>
<path d="M229.613 201.397C229.613 217.013 235.293 229.649 242.31 229.649L229.613 201.397Z" fill="#0000FF"/>
<path d="M242.31 229.649C242.31 208.408 253.8 191.218 267.997 191.218L242.31 229.649Z" fill="#46455B"/>
<path opacity="0.1" d="M241.448 235.328C244.182 235.328 246.399 234.895 246.399 234.36C246.399 233.825 244.182 233.392 241.448 233.392C238.713 233.392 236.497 233.825 236.497 234.36C236.497 234.895 238.713 235.328 241.448 235.328Z" fill="#0000FF"/>
<path d="M238.122 229.858C238.122 229.858 240.948 229.757 241.795 229.056C242.643 228.356 246.139 227.515 246.351 228.641C246.563 229.766 250.59 234.239 247.405 234.268C244.22 234.298 239.995 233.693 239.148 233.094C238.3 232.495 238.122 229.858 238.122 229.858Z" fill="#A8A8A8"/>
<path opacity="0.2" d="M247.464 233.876C244.277 233.905 240.057 233.3 239.207 232.701C238.56 232.246 238.303 230.607 238.215 229.855H238.122C238.122 229.855 238.3 232.492 239.15 233.091C240.001 233.689 244.22 234.295 247.408 234.265C248.329 234.265 248.645 233.876 248.628 233.316C248.501 233.657 248.165 233.869 247.464 233.876Z" fill="black"/>
<path d="M6.35547 209.511C6.35547 222.598 13.44 233.172 22.1975 233.172L6.35547 209.511Z" fill="#46455B"/>
<path d="M22.1975 233.172C22.1975 219.948 30.11 209.246 39.8791 209.246L22.1975 233.172Z" fill="#0000FF"/>
<path d="M12.0948 210.702C12.0948 223.135 16.6163 233.179 22.1974 233.179L12.0948 210.702Z" fill="#0000FF"/>
<path d="M22.1975 233.172C22.1975 216.274 31.3393 202.598 42.6344 202.598L22.1975 233.172Z" fill="#46455B"/>
<path opacity="0.1" d="M21.5107 237.694C23.6864 237.694 25.4501 237.348 25.4501 236.922C25.4501 236.495 23.6864 236.15 21.5107 236.15C19.3351 236.15 17.5714 236.495 17.5714 236.922C17.5714 237.348 19.3351 237.694 21.5107 237.694Z" fill="#0000FF"/>
<path d="M18.8657 233.339C18.8657 233.339 21.1123 233.257 21.7877 232.685C22.4631 232.112 25.2466 231.458 25.4133 232.358C25.58 233.257 28.7903 236.811 26.2611 236.833C23.7319 236.856 20.3662 236.375 19.6909 235.901C19.0155 235.427 18.8657 233.339 18.8657 233.339Z" fill="#A8A8A8"/>
<path opacity="0.2" d="M26.2978 236.549C23.7545 236.572 20.403 236.091 19.7276 235.613C19.2133 235.253 19.0098 233.948 18.9392 233.349H18.8657C18.8657 233.349 19.007 235.446 19.6824 235.924C20.3578 236.402 23.7178 236.879 26.2526 236.856C26.9845 236.856 27.2388 236.549 27.2247 236.101C27.123 236.362 26.8432 236.529 26.2978 236.549Z" fill="black"/>
</g>
<defs>
<clipPath id="clip0">
<rect width="268" height="248" fill="white"/>
</clipPath>
</defs>
</svg>
