<svg width="75" height="27" viewBox="0 0 75 27" fill="none" xmlns="http://www.w3.org/2000/svg">
<path d="M31.4961 18H30.3652V14.0566H26.0645V18H24.9395V9.46875H26.0645V13.1367H30.3652V9.46875H31.4961V18ZM40.0566 14.0098C40.0566 14.8457 39.916 15.5762 39.6348 16.2012C39.3535 16.8223 38.9551 17.2969 38.4395 17.625C37.9238 17.9531 37.3223 18.1172 36.6348 18.1172C35.9629 18.1172 35.3672 17.9531 34.8477 17.625C34.3281 17.293 33.9238 16.8223 33.6348 16.2129C33.3496 15.5996 33.2031 14.8906 33.1953 14.0859V13.4707C33.1953 12.6504 33.3379 11.9258 33.623 11.2969C33.9082 10.668 34.3105 10.1875 34.8301 9.85547C35.3535 9.51953 35.9512 9.35156 36.623 9.35156C37.3066 9.35156 37.9082 9.51758 38.4277 9.84961C38.9512 10.1777 39.3535 10.6562 39.6348 11.2852C39.916 11.9102 40.0566 12.6387 40.0566 13.4707V14.0098ZM38.9375 13.459C38.9375 12.4473 38.7344 11.6719 38.3281 11.1328C37.9219 10.5898 37.3535 10.3184 36.623 10.3184C35.9121 10.3184 35.3516 10.5898 34.9414 11.1328C34.5352 11.6719 34.3262 12.4219 34.3145 13.3828V14.0098C34.3145 14.9902 34.5195 15.7617 34.9297 16.3242C35.3438 16.8828 35.9121 17.1621 36.6348 17.1621C37.3613 17.1621 37.9238 16.8984 38.3223 16.3711C38.7207 15.8398 38.9258 15.0801 38.9375 14.0918V13.459ZM43.1973 9.46875L45.9863 16.4297L48.7754 9.46875H50.2344V18H49.1094V14.6777L49.2148 11.0918L46.4141 18H45.5527L42.7578 11.1094L42.8691 14.6777V18H41.7441V9.46875H43.1973ZM57.043 14.0566H53.3457V17.0801H57.6406V18H52.2207V9.46875H57.582V10.3945H53.3457V13.1367H57.043V14.0566Z" fill="#0000FF"/>
<path d="M3 9L12 2L21 9V20C21 20.5304 20.7893 21.0391 20.4142 21.4142C20.0391 21.7893 19.5304 22 19 22H5C4.46957 22 3.96086 21.7893 3.58579 21.4142C3.21071 21.0391 3 20.5304 3 20V9Z" stroke="black" stroke-width="2" stroke-linecap="round" stroke-linejoin="round"/>
<path d="M9 17V7H15V17" stroke="black" stroke-width="2" stroke-linecap="round" stroke-linejoin="round"/>
</svg>
