<svg width="76" height="27" viewBox="0 0 76 27" fill="none" xmlns="http://www.w3.org/2000/svg">
<path d="M4 14.5C4 13.837 4.26339 13.2011 4.73223 12.7322C5.20107 12.2634 5.83696 12 6.5 12H20" stroke="black" stroke-width="2" stroke-linecap="round" stroke-linejoin="round"/>
<path d="M6.5 3H20V23H6.5C5.83696 23 5.20107 22.7366 4.73223 22.2678C4.26339 21.7989 4 21.163 4 20.5V5.5C4 4.83696 4.26339 4.20107 4.73223 3.73223C5.20107 3.26339 5.83696 3 6.5 3V3Z" stroke="black" stroke-width="2" stroke-linecap="round" stroke-linejoin="round"/>
<path d="M27.2227 14.0332L26.1797 15.1172V18H25.0547V9.46875H26.1797V13.6875L29.9707 9.46875H31.3301L27.9727 13.2363L31.5938 18H30.2461L27.2227 14.0332ZM37.4004 14.0566H33.7031V17.0801H37.998V18H32.5781V9.46875H37.9395V10.3945H33.7031V13.1367H37.4004V14.0566ZM40.5293 17.0801H44.5723V18H39.3984V9.46875H40.5293V17.0801ZM50.6836 15.7734H47.1094L46.3066 18H45.1465L48.4043 9.46875H49.3887L52.6523 18H51.498L50.6836 15.7734ZM47.4492 14.8477H50.3496L48.8965 10.8574L47.4492 14.8477ZM56.3145 14.1973C55.3496 13.9199 54.6465 13.5801 54.2051 13.1777C53.7676 12.7715 53.5488 12.2715 53.5488 11.6777C53.5488 11.0059 53.8164 10.4512 54.3516 10.0137C54.8906 9.57227 55.5898 9.35156 56.4492 9.35156C57.0352 9.35156 57.5566 9.46484 58.0137 9.69141C58.4746 9.91797 58.8301 10.2305 59.0801 10.6289C59.334 11.0273 59.4609 11.4629 59.4609 11.9355H58.3301C58.3301 11.4199 58.166 11.0156 57.8379 10.7227C57.5098 10.4258 57.0469 10.2773 56.4492 10.2773C55.8945 10.2773 55.4609 10.4004 55.1484 10.6465C54.8398 10.8887 54.6855 11.2266 54.6855 11.6602C54.6855 12.0078 54.832 12.3027 55.125 12.5449C55.4219 12.7832 55.9238 13.002 56.6309 13.2012C57.3418 13.4004 57.8965 13.6211 58.2949 13.8633C58.6973 14.1016 58.9941 14.3809 59.1855 14.7012C59.3809 15.0215 59.4785 15.3984 59.4785 15.832C59.4785 16.5234 59.209 17.0781 58.6699 17.4961C58.1309 17.9102 57.4102 18.1172 56.5078 18.1172C55.9219 18.1172 55.375 18.0059 54.8672 17.7832C54.3594 17.5566 53.9668 17.248 53.6895 16.8574C53.416 16.4668 53.2793 16.0234 53.2793 15.5273H54.4102C54.4102 16.043 54.5996 16.4512 54.9785 16.752C55.3613 17.0488 55.8711 17.1973 56.5078 17.1973C57.1016 17.1973 57.5566 17.0762 57.873 16.834C58.1895 16.5918 58.3477 16.2617 58.3477 15.8438C58.3477 15.4258 58.2012 15.1035 57.9082 14.877C57.6152 14.6465 57.084 14.4199 56.3145 14.1973Z" fill="#0000FF"/>
</svg>
